# Blender v2.92.0 OBJ File: 'flat_hex.blend'
# www.blender.org
mtllib flat_hex2.mtl
o Cylinder
v 0.000000 -0.005000 -0.500000
v 0.000000 0.005000 -0.500000
v 0.433013 -0.005000 -0.250000
v 0.433013 0.005000 -0.250000
v 0.433013 -0.005000 0.250000
v 0.433013 0.005000 0.250000
v -0.000000 -0.005000 0.500000
v -0.000000 0.005000 0.500000
v -0.433013 -0.005000 0.250000
v -0.433013 0.005000 0.250000
v -0.433013 -0.005000 -0.250000
v -0.433013 0.005000 -0.250000
v 0.054127 -0.005000 -0.468750
v 0.108253 -0.005000 -0.437500
v 0.162380 -0.005000 -0.406250
v 0.216506 -0.005000 -0.375000
v 0.270633 -0.005000 -0.343750
v 0.324760 -0.005000 -0.312500
v 0.378886 -0.005000 -0.281250
v 0.378886 0.005000 -0.281250
v 0.324760 0.005000 -0.312500
v 0.270633 0.005000 -0.343750
v 0.216506 0.005000 -0.375000
v 0.162380 0.005000 -0.406250
v 0.108253 0.005000 -0.437500
v 0.054127 0.005000 -0.468750
v 0.000000 -0.003750 -0.500000
v 0.000000 -0.002500 -0.500000
v 0.000000 -0.001250 -0.500000
v 0.000000 0.000000 -0.500000
v 0.000000 0.001250 -0.500000
v 0.000000 0.002500 -0.500000
v 0.000000 0.003750 -0.500000
v 0.433013 0.003750 -0.250000
v 0.433013 0.002500 -0.250000
v 0.433013 0.001250 -0.250000
v 0.433013 0.000000 -0.250000
v 0.433013 -0.001250 -0.250000
v 0.433013 -0.002500 -0.250000
v 0.433013 -0.003750 -0.250000
v 0.433013 -0.005000 -0.187500
v 0.433013 -0.005000 -0.125000
v 0.433013 -0.005000 -0.062500
v 0.433013 -0.005000 0.000000
v 0.433013 -0.005000 0.062500
v 0.433013 -0.005000 0.125000
v 0.433013 -0.005000 0.187500
v 0.433013 0.005000 0.187500
v 0.433013 0.005000 0.125000
v 0.433013 0.005000 0.062500
v 0.433013 0.005000 0.000000
v 0.433013 0.005000 -0.062500
v 0.433013 0.005000 -0.125000
v 0.433013 0.005000 -0.187500
v 0.433013 0.003750 0.250000
v 0.433013 0.002500 0.250000
v 0.433013 0.001250 0.250000
v 0.433013 0.000000 0.250000
v 0.433013 -0.001250 0.250000
v 0.433013 -0.002500 0.250000
v 0.433013 -0.003750 0.250000
v 0.378886 -0.005000 0.281250
v 0.324760 -0.005000 0.312500
v 0.270633 -0.005000 0.343750
v 0.216506 -0.005000 0.375000
v 0.162380 -0.005000 0.406250
v 0.108253 -0.005000 0.437500
v 0.054127 -0.005000 0.468750
v 0.054127 0.005000 0.468750
v 0.108253 0.005000 0.437500
v 0.162380 0.005000 0.406250
v 0.216506 0.005000 0.375000
v 0.270633 0.005000 0.343750
v 0.324760 0.005000 0.312500
v 0.378886 0.005000 0.281250
v -0.000000 0.003750 0.500000
v -0.000000 0.002500 0.500000
v -0.000000 0.001250 0.500000
v -0.000000 0.000000 0.500000
v -0.000000 -0.001250 0.500000
v -0.000000 -0.002500 0.500000
v -0.000000 -0.003750 0.500000
v -0.054127 -0.005000 0.468750
v -0.108253 -0.005000 0.437500
v -0.162380 -0.005000 0.406250
v -0.216506 -0.005000 0.375000
v -0.270633 -0.005000 0.343750
v -0.324760 -0.005000 0.312500
v -0.378886 -0.005000 0.281250
v -0.378886 0.005000 0.281250
v -0.324760 0.005000 0.312500
v -0.270633 0.005000 0.343750
v -0.216506 0.005000 0.375000
v -0.162380 0.005000 0.406250
v -0.108253 0.005000 0.437500
v -0.054127 0.005000 0.468750
v -0.433013 0.003750 0.250000
v -0.433013 0.002500 0.250000
v -0.433013 0.001250 0.250000
v -0.433013 0.000000 0.250000
v -0.433013 -0.001250 0.250000
v -0.433013 -0.002500 0.250000
v -0.433013 -0.003750 0.250000
v -0.433013 -0.005000 0.187500
v -0.433013 -0.005000 0.125000
v -0.433013 -0.005000 0.062500
v -0.433013 -0.005000 0.000000
v -0.433013 -0.005000 -0.062500
v -0.433013 -0.005000 -0.125000
v -0.433013 -0.005000 -0.187500
v -0.433013 0.005000 -0.187500
v -0.433013 0.005000 -0.125000
v -0.433013 0.005000 -0.062500
v -0.433013 0.005000 0.000000
v -0.433013 0.005000 0.062500
v -0.433013 0.005000 0.125000
v -0.433013 0.005000 0.187500
v -0.433013 0.003750 -0.250000
v -0.433013 0.002500 -0.250000
v -0.433013 0.001250 -0.250000
v -0.433013 0.000000 -0.250000
v -0.433013 -0.001250 -0.250000
v -0.433013 -0.002500 -0.250000
v -0.433013 -0.003750 -0.250000
v -0.378886 -0.005000 -0.281250
v -0.324760 -0.005000 -0.312500
v -0.270633 -0.005000 -0.343750
v -0.216506 -0.005000 -0.375000
v -0.162380 -0.005000 -0.406250
v -0.108253 -0.005000 -0.437500
v -0.054127 -0.005000 -0.468750
v -0.054127 0.005000 -0.468750
v -0.108253 0.005000 -0.437500
v -0.162380 0.005000 -0.406250
v -0.216506 0.005000 -0.375000
v -0.270633 0.005000 -0.343750
v -0.324760 0.005000 -0.312500
v -0.378886 0.005000 -0.281250
v 0.054127 -0.003750 -0.468750
v 0.054127 -0.002500 -0.468750
v 0.054127 -0.001250 -0.468750
v 0.054127 0.000000 -0.468750
v 0.054127 0.001250 -0.468750
v 0.054127 0.002500 -0.468750
v 0.054127 0.003750 -0.468750
v 0.108253 -0.003750 -0.437500
v 0.108253 -0.002500 -0.437500
v 0.108253 -0.001250 -0.437500
v 0.108253 0.000000 -0.437500
v 0.108253 0.001250 -0.437500
v 0.108253 0.002500 -0.437500
v 0.108253 0.003750 -0.437500
v 0.162380 -0.003750 -0.406250
v 0.162380 -0.002500 -0.406250
v 0.162380 -0.001250 -0.406250
v 0.162380 0.000000 -0.406250
v 0.162380 0.001250 -0.406250
v 0.162380 0.002500 -0.406250
v 0.162380 0.003750 -0.406250
v 0.216506 -0.003750 -0.375000
v 0.216506 -0.002500 -0.375000
v 0.216506 -0.001250 -0.375000
v 0.216506 0.000000 -0.375000
v 0.216506 0.001250 -0.375000
v 0.216506 0.002500 -0.375000
v 0.216506 0.003750 -0.375000
v 0.270633 -0.003750 -0.343750
v 0.270633 -0.002500 -0.343750
v 0.270633 -0.001250 -0.343750
v 0.270633 0.000000 -0.343750
v 0.270633 0.001250 -0.343750
v 0.270633 0.002500 -0.343750
v 0.270633 0.003750 -0.343750
v 0.324760 -0.003750 -0.312500
v 0.324760 -0.002500 -0.312500
v 0.324760 -0.001250 -0.312500
v 0.324760 0.000000 -0.312500
v 0.324760 0.001250 -0.312500
v 0.324760 0.002500 -0.312500
v 0.324760 0.003750 -0.312500
v 0.378886 -0.003750 -0.281250
v 0.378886 -0.002500 -0.281250
v 0.378886 -0.001250 -0.281250
v 0.378886 0.000000 -0.281250
v 0.378886 0.001250 -0.281250
v 0.378886 0.002500 -0.281250
v 0.378886 0.003750 -0.281250
v 0.433013 -0.003750 -0.187500
v 0.433013 -0.002500 -0.187500
v 0.433013 -0.001250 -0.187500
v 0.433013 0.000000 -0.187500
v 0.433013 0.001250 -0.187500
v 0.433013 0.002500 -0.187500
v 0.433013 0.003750 -0.187500
v 0.433013 -0.003750 -0.125000
v 0.433013 -0.002500 -0.125000
v 0.433013 -0.001250 -0.125000
v 0.433013 0.000000 -0.125000
v 0.433013 0.001250 -0.125000
v 0.433013 0.002500 -0.125000
v 0.433013 0.003750 -0.125000
v 0.433013 -0.003750 -0.062500
v 0.433013 -0.002500 -0.062500
v 0.433013 -0.001250 -0.062500
v 0.433013 0.000000 -0.062500
v 0.433013 0.001250 -0.062500
v 0.433013 0.002500 -0.062500
v 0.433013 0.003750 -0.062500
v 0.433013 -0.003750 0.000000
v 0.433013 -0.002500 0.000000
v 0.433013 -0.001250 0.000000
v 0.433013 0.000000 0.000000
v 0.433013 0.001250 0.000000
v 0.433013 0.002500 0.000000
v 0.433013 0.003750 0.000000
v 0.433013 -0.003750 0.062500
v 0.433013 -0.002500 0.062500
v 0.433013 -0.001250 0.062500
v 0.433013 0.000000 0.062500
v 0.433013 0.001250 0.062500
v 0.433013 0.002500 0.062500
v 0.433013 0.003750 0.062500
v 0.433013 -0.003750 0.125000
v 0.433013 -0.002500 0.125000
v 0.433013 -0.001250 0.125000
v 0.433013 0.000000 0.125000
v 0.433013 0.001250 0.125000
v 0.433013 0.002500 0.125000
v 0.433013 0.003750 0.125000
v 0.433013 -0.003750 0.187500
v 0.433013 -0.002500 0.187500
v 0.433013 -0.001250 0.187500
v 0.433013 0.000000 0.187500
v 0.433013 0.001250 0.187500
v 0.433013 0.002500 0.187500
v 0.433013 0.003750 0.187500
v 0.378886 -0.003750 0.281250
v 0.378886 -0.002500 0.281250
v 0.378886 -0.001250 0.281250
v 0.378886 0.000000 0.281250
v 0.378886 0.001250 0.281250
v 0.378886 0.002500 0.281250
v 0.378886 0.003750 0.281250
v 0.324760 -0.003750 0.312500
v 0.324760 -0.002500 0.312500
v 0.324760 -0.001250 0.312500
v 0.324760 0.000000 0.312500
v 0.324760 0.001250 0.312500
v 0.324760 0.002500 0.312500
v 0.324760 0.003750 0.312500
v 0.270633 -0.003750 0.343750
v 0.270633 -0.002500 0.343750
v 0.270633 -0.001250 0.343750
v 0.270633 0.000000 0.343750
v 0.270633 0.001250 0.343750
v 0.270633 0.002500 0.343750
v 0.270633 0.003750 0.343750
v 0.216506 -0.003750 0.375000
v 0.216506 -0.002500 0.375000
v 0.216506 -0.001250 0.375000
v 0.216506 0.000000 0.375000
v 0.216506 0.001250 0.375000
v 0.216506 0.002500 0.375000
v 0.216506 0.003750 0.375000
v 0.162380 -0.003750 0.406250
v 0.162380 -0.002500 0.406250
v 0.162380 -0.001250 0.406250
v 0.162380 0.000000 0.406250
v 0.162380 0.001250 0.406250
v 0.162380 0.002500 0.406250
v 0.162380 0.003750 0.406250
v 0.108253 -0.003750 0.437500
v 0.108253 -0.002500 0.437500
v 0.108253 -0.001250 0.437500
v 0.108253 0.000000 0.437500
v 0.108253 0.001250 0.437500
v 0.108253 0.002500 0.437500
v 0.108253 0.003750 0.437500
v 0.054127 -0.003750 0.468750
v 0.054127 -0.002500 0.468750
v 0.054127 -0.001250 0.468750
v 0.054127 0.000000 0.468750
v 0.054127 0.001250 0.468750
v 0.054127 0.002500 0.468750
v 0.054127 0.003750 0.468750
v -0.054127 -0.003750 0.468750
v -0.054127 -0.002500 0.468750
v -0.054127 -0.001250 0.468750
v -0.054127 0.000000 0.468750
v -0.054127 0.001250 0.468750
v -0.054127 0.002500 0.468750
v -0.054127 0.003750 0.468750
v -0.108253 -0.003750 0.437500
v -0.108253 -0.002500 0.437500
v -0.108253 -0.001250 0.437500
v -0.108253 0.000000 0.437500
v -0.108253 0.001250 0.437500
v -0.108253 0.002500 0.437500
v -0.108253 0.003750 0.437500
v -0.162380 -0.003750 0.406250
v -0.162380 -0.002500 0.406250
v -0.162380 -0.001250 0.406250
v -0.162380 0.000000 0.406250
v -0.162380 0.001250 0.406250
v -0.162380 0.002500 0.406250
v -0.162380 0.003750 0.406250
v -0.216506 -0.003750 0.375000
v -0.216506 -0.002500 0.375000
v -0.216506 -0.001250 0.375000
v -0.216506 0.000000 0.375000
v -0.216506 0.001250 0.375000
v -0.216506 0.002500 0.375000
v -0.216506 0.003750 0.375000
v -0.270633 -0.003750 0.343750
v -0.270633 -0.002500 0.343750
v -0.270633 -0.001250 0.343750
v -0.270633 0.000000 0.343750
v -0.270633 0.001250 0.343750
v -0.270633 0.002500 0.343750
v -0.270633 0.003750 0.343750
v -0.324760 -0.003750 0.312500
v -0.324760 -0.002500 0.312500
v -0.324760 -0.001250 0.312500
v -0.324760 0.000000 0.312500
v -0.324760 0.001250 0.312500
v -0.324760 0.002500 0.312500
v -0.324760 0.003750 0.312500
v -0.378886 -0.003750 0.281250
v -0.378886 -0.002500 0.281250
v -0.378886 -0.001250 0.281250
v -0.378886 0.000000 0.281250
v -0.378886 0.001250 0.281250
v -0.378886 0.002500 0.281250
v -0.378886 0.003750 0.281250
v -0.000000 0.005000 0.000000
v 0.367383 0.005000 -0.212109
v 0.301076 0.005000 -0.238155
v 0.234190 0.005000 -0.264262
v 0.166855 0.005000 -0.289001
v 0.356786 0.005000 -0.141662
v 0.276200 0.005000 -0.159464
v 0.193535 0.005000 -0.176963
v 0.111166 0.005000 -0.192545
v 0.345953 0.005000 -0.070683
v 0.250022 0.005000 -0.079124
v 0.150810 0.005000 -0.087070
v 0.054020 0.005000 -0.093566
v -0.000000 0.005000 -0.424217
v -0.055710 0.005000 -0.379817
v -0.111763 0.005000 -0.334945
v -0.166855 0.005000 -0.289001
v 0.055710 0.005000 -0.379817
v -0.000000 0.005000 -0.318929
v -0.056487 0.005000 -0.256088
v -0.111166 0.005000 -0.192545
v 0.111763 0.005000 -0.334945
v 0.056487 0.005000 -0.256088
v -0.000000 0.005000 -0.174140
v -0.054020 0.005000 -0.093566
v -0.367383 0.005000 -0.212109
v -0.356786 0.005000 -0.141662
v -0.345953 0.005000 -0.070683
v -0.333710 0.005000 0.000000
v -0.301076 0.005000 -0.238155
v -0.276200 0.005000 -0.159464
v -0.250022 0.005000 -0.079124
v -0.222332 0.005000 0.000000
v -0.234190 0.005000 -0.264262
v -0.193535 0.005000 -0.176963
v -0.150810 0.005000 -0.087070
v -0.108041 0.005000 0.000000
v -0.367383 0.005000 0.212109
v -0.301076 0.005000 0.238154
v -0.234190 0.005000 0.264262
v -0.166855 0.005000 0.289001
v -0.356786 0.005000 0.141662
v -0.276200 0.005000 0.159464
v -0.193535 0.005000 0.176963
v -0.111166 0.005000 0.192545
v -0.345953 0.005000 0.070683
v -0.250022 0.005000 0.079124
v -0.150810 0.005000 0.087070
v -0.054020 0.005000 0.093566
v -0.000000 0.005000 0.424217
v 0.055710 0.005000 0.379817
v 0.111763 0.005000 0.334945
v 0.166855 0.005000 0.289001
v -0.055710 0.005000 0.379817
v -0.000000 0.005000 0.318929
v 0.056487 0.005000 0.256088
v 0.111166 0.005000 0.192545
v -0.111763 0.005000 0.334945
v -0.056487 0.005000 0.256088
v -0.000000 0.005000 0.174140
v 0.054020 0.005000 0.093566
v 0.367383 0.005000 0.212109
v 0.356786 0.005000 0.141662
v 0.345953 0.005000 0.070683
v 0.333710 0.005000 0.000000
v 0.301076 0.005000 0.238155
v 0.276200 0.005000 0.159464
v 0.250022 0.005000 0.079124
v 0.222332 0.005000 0.000000
v 0.234190 0.005000 0.264262
v 0.193535 0.005000 0.176963
v 0.150810 0.005000 0.087070
v 0.108041 0.005000 0.000000
v -0.433013 -0.003750 0.187500
v -0.433013 -0.002500 0.187500
v -0.433013 -0.001250 0.187500
v -0.433013 0.000000 0.187500
v -0.433013 0.001250 0.187500
v -0.433013 0.002500 0.187500
v -0.433013 0.003750 0.187500
v -0.433013 -0.003750 0.125000
v -0.433013 -0.002500 0.125000
v -0.433013 -0.001250 0.125000
v -0.433013 0.000000 0.125000
v -0.433013 0.001250 0.125000
v -0.433013 0.002500 0.125000
v -0.433013 0.003750 0.125000
v -0.433013 -0.003750 0.062500
v -0.433013 -0.002500 0.062500
v -0.433013 -0.001250 0.062500
v -0.433013 0.000000 0.062500
v -0.433013 0.001250 0.062500
v -0.433013 0.002500 0.062500
v -0.433013 0.003750 0.062500
v -0.433013 -0.003750 -0.000000
v -0.433013 -0.002500 0.000000
v -0.433013 -0.001250 0.000000
v -0.433013 0.000000 -0.000000
v -0.433013 0.001250 0.000000
v -0.433013 0.002500 0.000000
v -0.433013 0.003750 0.000000
v -0.433013 -0.003750 -0.062500
v -0.433013 -0.002500 -0.062500
v -0.433013 -0.001250 -0.062500
v -0.433013 0.000000 -0.062500
v -0.433013 0.001250 -0.062500
v -0.433013 0.002500 -0.062500
v -0.433013 0.003750 -0.062500
v -0.433013 -0.003750 -0.125000
v -0.433013 -0.002500 -0.125000
v -0.433013 -0.001250 -0.125000
v -0.433013 0.000000 -0.125000
v -0.433013 0.001250 -0.125000
v -0.433013 0.002500 -0.125000
v -0.433013 0.003750 -0.125000
v -0.433013 -0.003750 -0.187500
v -0.433013 -0.002500 -0.187500
v -0.433013 -0.001250 -0.187500
v -0.433013 0.000000 -0.187500
v -0.433013 0.001250 -0.187500
v -0.433013 0.002500 -0.187500
v -0.433013 0.003750 -0.187500
v -0.378886 -0.003750 -0.281250
v -0.378886 -0.002500 -0.281250
v -0.378886 -0.001250 -0.281250
v -0.378886 0.000000 -0.281250
v -0.378886 0.001250 -0.281250
v -0.378886 0.002500 -0.281250
v -0.378886 0.003750 -0.281250
v -0.324760 -0.003750 -0.312500
v -0.324760 -0.002500 -0.312500
v -0.324760 -0.001250 -0.312500
v -0.324760 0.000000 -0.312500
v -0.324760 0.001250 -0.312500
v -0.324760 0.002500 -0.312500
v -0.324760 0.003750 -0.312500
v -0.270633 -0.003750 -0.343750
v -0.270633 -0.002500 -0.343750
v -0.270633 -0.001250 -0.343750
v -0.270633 0.000000 -0.343750
v -0.270633 0.001250 -0.343750
v -0.270633 0.002500 -0.343750
v -0.270633 0.003750 -0.343750
v -0.216506 -0.003750 -0.375000
v -0.216506 -0.002500 -0.375000
v -0.216506 -0.001250 -0.375000
v -0.216506 0.000000 -0.375000
v -0.216506 0.001250 -0.375000
v -0.216506 0.002500 -0.375000
v -0.216506 0.003750 -0.375000
v -0.162380 -0.003750 -0.406250
v -0.162380 -0.002500 -0.406250
v -0.162380 -0.001250 -0.406250
v -0.162380 0.000000 -0.406250
v -0.162380 0.001250 -0.406250
v -0.162380 0.002500 -0.406250
v -0.162380 0.003750 -0.406250
v -0.108253 -0.003750 -0.437500
v -0.108253 -0.002500 -0.437500
v -0.108253 -0.001250 -0.437500
v -0.108253 0.000000 -0.437500
v -0.108253 0.001250 -0.437500
v -0.108253 0.002500 -0.437500
v -0.108253 0.003750 -0.437500
v -0.054127 -0.003750 -0.468750
v -0.054127 -0.002500 -0.468750
v -0.054127 -0.001250 -0.468750
v -0.054127 0.000000 -0.468750
v -0.054127 0.001250 -0.468750
v -0.054127 0.002500 -0.468750
v -0.054127 0.003750 -0.468750
v -0.000000 -0.005000 0.000000
v 0.000000 -0.005000 -0.424217
v 0.055710 -0.005000 -0.379817
v 0.111763 -0.005000 -0.334945
v 0.166855 -0.005000 -0.289001
v -0.055710 -0.005000 -0.379817
v 0.000000 -0.005000 -0.318929
v 0.056487 -0.005000 -0.256088
v 0.111166 -0.005000 -0.192545
v -0.111763 -0.005000 -0.334945
v -0.056487 -0.005000 -0.256088
v -0.000000 -0.005000 -0.174140
v 0.054020 -0.005000 -0.093566
v 0.367383 -0.005000 -0.212109
v 0.356786 -0.005000 -0.141662
v 0.345953 -0.005000 -0.070683
v 0.333710 -0.005000 0.000000
v 0.301076 -0.005000 -0.238155
v 0.276200 -0.005000 -0.159464
v 0.250022 -0.005000 -0.079124
v 0.222332 -0.005000 0.000000
v 0.234190 -0.005000 -0.264262
v 0.193535 -0.005000 -0.176963
v 0.150810 -0.005000 -0.087070
v 0.108041 -0.005000 0.000000
v 0.367383 -0.005000 0.212109
v 0.301076 -0.005000 0.238155
v 0.234190 -0.005000 0.264263
v 0.166855 -0.005000 0.289001
v 0.356786 -0.005000 0.141662
v 0.276200 -0.005000 0.159464
v 0.193535 -0.005000 0.176963
v 0.111166 -0.005000 0.192545
v 0.345953 -0.005000 0.070683
v 0.250022 -0.005000 0.079124
v 0.150810 -0.005000 0.087070
v 0.054020 -0.005000 0.093566
v -0.000000 -0.005000 0.424217
v -0.055710 -0.005000 0.379817
v -0.111763 -0.005000 0.334945
v -0.166855 -0.005000 0.289001
v 0.055710 -0.005000 0.379817
v -0.000000 -0.005000 0.318929
v -0.056487 -0.005000 0.256088
v -0.111166 -0.005000 0.192545
v 0.111763 -0.005000 0.334945
v 0.056487 -0.005000 0.256088
v -0.000000 -0.005000 0.174140
v -0.054020 -0.005000 0.093566
v -0.367383 -0.005000 0.212109
v -0.356786 -0.005000 0.141662
v -0.345953 -0.005000 0.070683
v -0.333710 -0.005000 0.000000
v -0.301076 -0.005000 0.238155
v -0.276200 -0.005000 0.159464
v -0.250022 -0.005000 0.079124
v -0.222332 -0.005000 0.000000
v -0.234190 -0.005000 0.264262
v -0.193535 -0.005000 0.176963
v -0.150810 -0.005000 0.087070
v -0.108041 -0.005000 0.000000
v -0.367383 -0.005000 -0.212109
v -0.301076 -0.005000 -0.238154
v -0.234190 -0.005000 -0.264262
v -0.166855 -0.005000 -0.289001
v -0.356786 -0.005000 -0.141662
v -0.276200 -0.005000 -0.159464
v -0.193535 -0.005000 -0.176963
v -0.111166 -0.005000 -0.192545
v -0.345953 -0.005000 -0.070683
v -0.250022 -0.005000 -0.079124
v -0.150810 -0.005000 -0.087070
v -0.054020 -0.005000 -0.093566
vt 0.979167 0.562500
vt 0.979167 0.625000
vt 0.958333 0.625000
vt 0.958333 0.562500
vt 0.979167 0.687500
vt 0.958333 0.687500
vt 0.979167 0.750000
vt 0.958333 0.750000
vt 0.979167 0.812500
vt 0.958333 0.812500
vt 0.979167 0.875000
vt 0.958333 0.875000
vt 0.979167 0.937500
vt 0.958333 0.937500
vt 0.937500 0.625000
vt 0.937500 0.562500
vt 0.937500 0.687500
vt 0.937500 0.750000
vt 0.937500 0.812500
vt 0.937500 0.875000
vt 0.937500 0.937500
vt 0.916667 0.625000
vt 0.916667 0.562500
vt 0.916667 0.687500
vt 0.916667 0.750000
vt 0.916667 0.812500
vt 0.916667 0.875000
vt 0.916667 0.937500
vt 0.895833 0.625000
vt 0.895833 0.562500
vt 0.895833 0.687500
vt 0.895833 0.750000
vt 0.895833 0.812500
vt 0.895833 0.875000
vt 0.895833 0.937500
vt 0.875000 0.625000
vt 0.875000 0.562500
vt 0.875000 0.687500
vt 0.875000 0.750000
vt 0.875000 0.812500
vt 0.875000 0.875000
vt 0.875000 0.937500
vt 0.854167 0.625000
vt 0.854167 0.562500
vt 0.854167 0.687500
vt 0.854167 0.750000
vt 0.854167 0.812500
vt 0.854167 0.875000
vt 0.854167 0.937500
vt 1.000000 0.500000
vt 1.000000 0.562500
vt 0.979167 0.500000
vt 1.000000 0.625000
vt 1.000000 0.687500
vt 1.000000 0.750000
vt 1.000000 0.812500
vt 1.000000 0.875000
vt 1.000000 0.937500
vt 1.000000 1.000000
vt 0.979167 1.000000
vt 0.958333 1.000000
vt 0.937500 1.000000
vt 0.916667 1.000000
vt 0.895833 1.000000
vt 0.875000 1.000000
vt 0.854167 1.000000
vt 0.833333 1.000000
vt 0.833333 0.937500
vt 0.833333 0.875000
vt 0.833333 0.812500
vt 0.833333 0.750000
vt 0.833333 0.687500
vt 0.833333 0.625000
vt 0.833333 0.562500
vt 0.854167 0.500000
vt 0.833333 0.500000
vt 0.875000 0.500000
vt 0.895833 0.500000
vt 0.916667 0.500000
vt 0.937500 0.500000
vt 0.958333 0.500000
vt 0.812500 0.562500
vt 0.812500 0.625000
vt 0.791667 0.625000
vt 0.791667 0.562500
vt 0.812500 0.687500
vt 0.791667 0.687500
vt 0.812500 0.750000
vt 0.791667 0.750000
vt 0.812500 0.812500
vt 0.791667 0.812500
vt 0.812500 0.875000
vt 0.791667 0.875000
vt 0.812500 0.937500
vt 0.791667 0.937500
vt 0.770833 0.625000
vt 0.770833 0.562500
vt 0.770833 0.687500
vt 0.770833 0.750000
vt 0.770833 0.812500
vt 0.770833 0.875000
vt 0.770833 0.937500
vt 0.750000 0.625000
vt 0.750000 0.562500
vt 0.750000 0.687500
vt 0.750000 0.750000
vt 0.750000 0.812500
vt 0.750000 0.875000
vt 0.750000 0.937500
vt 0.729167 0.625000
vt 0.729167 0.562500
vt 0.729167 0.687500
vt 0.729167 0.750000
vt 0.729167 0.812500
vt 0.729167 0.875000
vt 0.729167 0.937500
vt 0.708333 0.625000
vt 0.708333 0.562500
vt 0.708333 0.687500
vt 0.708333 0.750000
vt 0.708333 0.812500
vt 0.708333 0.875000
vt 0.708333 0.937500
vt 0.687500 0.625000
vt 0.687500 0.562500
vt 0.687500 0.687500
vt 0.687500 0.750000
vt 0.687500 0.812500
vt 0.687500 0.875000
vt 0.687500 0.937500
vt 0.812500 0.500000
vt 0.812500 1.000000
vt 0.791667 1.000000
vt 0.770833 1.000000
vt 0.750000 1.000000
vt 0.729167 1.000000
vt 0.708333 1.000000
vt 0.687500 1.000000
vt 0.666667 1.000000
vt 0.666667 0.937500
vt 0.666667 0.875000
vt 0.666667 0.812500
vt 0.666667 0.750000
vt 0.666667 0.687500
vt 0.666667 0.625000
vt 0.666667 0.562500
vt 0.687500 0.500000
vt 0.666667 0.500000
vt 0.708333 0.500000
vt 0.729167 0.500000
vt 0.750000 0.500000
vt 0.770833 0.500000
vt 0.791667 0.500000
vt 0.645833 0.562500
vt 0.645833 0.625000
vt 0.625000 0.625000
vt 0.625000 0.562500
vt 0.645833 0.687500
vt 0.625000 0.687500
vt 0.645833 0.750000
vt 0.625000 0.750000
vt 0.645833 0.812500
vt 0.625000 0.812500
vt 0.645833 0.875000
vt 0.625000 0.875000
vt 0.645833 0.937500
vt 0.625000 0.937500
vt 0.604167 0.625000
vt 0.604167 0.562500
vt 0.604167 0.687500
vt 0.604167 0.750000
vt 0.604167 0.812500
vt 0.604167 0.875000
vt 0.604167 0.937500
vt 0.583333 0.625000
vt 0.583333 0.562500
vt 0.583333 0.687500
vt 0.583333 0.750000
vt 0.583333 0.812500
vt 0.583333 0.875000
vt 0.583333 0.937500
vt 0.562500 0.625000
vt 0.562500 0.562500
vt 0.562500 0.687500
vt 0.562500 0.750000
vt 0.562500 0.812500
vt 0.562500 0.875000
vt 0.562500 0.937500
vt 0.541667 0.625000
vt 0.541667 0.562500
vt 0.541667 0.687500
vt 0.541667 0.750000
vt 0.541667 0.812500
vt 0.541667 0.875000
vt 0.541667 0.937500
vt 0.520833 0.625000
vt 0.520833 0.562500
vt 0.520833 0.687500
vt 0.520833 0.750000
vt 0.520833 0.812500
vt 0.520833 0.875000
vt 0.520833 0.937500
vt 0.645833 0.500000
vt 0.645833 1.000000
vt 0.625000 1.000000
vt 0.604167 1.000000
vt 0.583333 1.000000
vt 0.562500 1.000000
vt 0.541667 1.000000
vt 0.520833 1.000000
vt 0.500000 1.000000
vt 0.500000 0.937500
vt 0.500000 0.875000
vt 0.500000 0.812500
vt 0.500000 0.750000
vt 0.500000 0.687500
vt 0.500000 0.625000
vt 0.500000 0.562500
vt 0.520833 0.500000
vt 0.500000 0.500000
vt 0.541667 0.500000
vt 0.562500 0.500000
vt 0.583333 0.500000
vt 0.604167 0.500000
vt 0.625000 0.500000
vt 0.479167 0.562500
vt 0.479167 0.625000
vt 0.458333 0.625000
vt 0.458333 0.562500
vt 0.479167 0.687500
vt 0.458333 0.687500
vt 0.479167 0.750000
vt 0.458333 0.750000
vt 0.479167 0.812500
vt 0.458333 0.812500
vt 0.479167 0.875000
vt 0.458333 0.875000
vt 0.479167 0.937500
vt 0.458333 0.937500
vt 0.437500 0.625000
vt 0.437500 0.562500
vt 0.437500 0.687500
vt 0.437500 0.750000
vt 0.437500 0.812500
vt 0.437500 0.875000
vt 0.437500 0.937500
vt 0.416667 0.625000
vt 0.416667 0.562500
vt 0.416667 0.687500
vt 0.416667 0.750000
vt 0.416667 0.812500
vt 0.416667 0.875000
vt 0.416667 0.937500
vt 0.395833 0.625000
vt 0.395833 0.562500
vt 0.395833 0.687500
vt 0.395833 0.750000
vt 0.395833 0.812500
vt 0.395833 0.875000
vt 0.395833 0.937500
vt 0.375000 0.625000
vt 0.375000 0.562500
vt 0.375000 0.687500
vt 0.375000 0.750000
vt 0.375000 0.812500
vt 0.375000 0.875000
vt 0.375000 0.937500
vt 0.354167 0.625000
vt 0.354167 0.562500
vt 0.354167 0.687500
vt 0.354167 0.750000
vt 0.354167 0.812500
vt 0.354167 0.875000
vt 0.354167 0.937500
vt 0.479167 0.500000
vt 0.479167 1.000000
vt 0.458333 1.000000
vt 0.437500 1.000000
vt 0.416667 1.000000
vt 0.395833 1.000000
vt 0.375000 1.000000
vt 0.354167 1.000000
vt 0.333333 1.000000
vt 0.333333 0.937500
vt 0.333333 0.875000
vt 0.333333 0.812500
vt 0.333333 0.750000
vt 0.333333 0.687500
vt 0.333333 0.625000
vt 0.333333 0.562500
vt 0.354167 0.500000
vt 0.333333 0.500000
vt 0.375000 0.500000
vt 0.395833 0.500000
vt 0.416667 0.500000
vt 0.437500 0.500000
vt 0.458333 0.500000
vt 0.426344 0.351812
vt 0.394516 0.364314
vt 0.382576 0.326543
vt 0.421257 0.317998
vt 0.362411 0.376846
vt 0.342897 0.334942
vt 0.330090 0.388721
vt 0.303360 0.342421
vt 0.370011 0.287980
vt 0.416057 0.283928
vt 0.322389 0.291794
vt 0.275930 0.294912
vt 0.250000 0.453624
vt 0.223259 0.432312
vt 0.250000 0.403086
vt 0.276741 0.432312
vt 0.196354 0.410774
vt 0.222886 0.372922
vt 0.169910 0.388721
vt 0.196640 0.342421
vt 0.277114 0.372922
vt 0.303646 0.410774
vt 0.250000 0.333587
vt 0.224070 0.294912
vt 0.073656 0.351812
vt 0.078743 0.317998
vt 0.117424 0.326543
vt 0.105484 0.364314
vt 0.083943 0.283928
vt 0.129989 0.287980
vt 0.089819 0.250000
vt 0.143281 0.250000
vt 0.157103 0.334942
vt 0.137589 0.376846
vt 0.177611 0.291794
vt 0.198140 0.250000
vt 0.073656 0.148188
vt 0.105484 0.135686
vt 0.117424 0.173457
vt 0.078743 0.182002
vt 0.137589 0.123154
vt 0.157103 0.165058
vt 0.169910 0.111279
vt 0.196640 0.157579
vt 0.129989 0.212020
vt 0.083943 0.216072
vt 0.177611 0.208206
vt 0.224070 0.205088
vt 0.250000 0.046376
vt 0.276741 0.067688
vt 0.250000 0.096914
vt 0.223259 0.067688
vt 0.303646 0.089226
vt 0.277114 0.127078
vt 0.330090 0.111279
vt 0.303360 0.157579
vt 0.222886 0.127078
vt 0.196354 0.089226
vt 0.250000 0.166413
vt 0.275930 0.205088
vt 0.426344 0.148188
vt 0.421257 0.182002
vt 0.382576 0.173457
vt 0.394516 0.135686
vt 0.416057 0.216072
vt 0.370011 0.212020
vt 0.410181 0.250000
vt 0.356719 0.250000
vt 0.342897 0.165058
vt 0.362411 0.123154
vt 0.322389 0.208206
vt 0.301859 0.250000
vt 0.250000 0.250000
vt 0.457846 0.370000
vt 0.431865 0.385000
vt 0.457846 0.340000
vt 0.405885 0.400000
vt 0.379904 0.415000
vt 0.353923 0.430000
vt 0.457846 0.310000
vt 0.457846 0.280000
vt 0.457846 0.250000
vt 0.250000 0.490000
vt 0.224019 0.475000
vt 0.275981 0.475000
vt 0.198038 0.460000
vt 0.172058 0.445000
vt 0.146077 0.430000
vt 0.301962 0.460000
vt 0.327942 0.445000
vt 0.042154 0.370000
vt 0.042154 0.340000
vt 0.068135 0.385000
vt 0.042154 0.310000
vt 0.042154 0.280000
vt 0.042154 0.250000
vt 0.094115 0.400000
vt 0.120096 0.415000
vt 0.042154 0.130000
vt 0.068135 0.115000
vt 0.042154 0.160000
vt 0.094115 0.100000
vt 0.120096 0.085000
vt 0.146077 0.070000
vt 0.042154 0.190000
vt 0.042154 0.220000
vt 0.250000 0.010000
vt 0.275981 0.025000
vt 0.224019 0.025000
vt 0.301962 0.040000
vt 0.327942 0.055000
vt 0.353923 0.070000
vt 0.198038 0.040000
vt 0.172058 0.055000
vt 0.457846 0.130000
vt 0.457846 0.160000
vt 0.431865 0.115000
vt 0.457846 0.190000
vt 0.457846 0.220000
vt 0.405885 0.100000
vt 0.379904 0.085000
vt 0.312500 0.562500
vt 0.312500 0.625000
vt 0.291667 0.625000
vt 0.291667 0.562500
vt 0.312500 0.687500
vt 0.291667 0.687500
vt 0.312500 0.750000
vt 0.291667 0.750000
vt 0.312500 0.812500
vt 0.291667 0.812500
vt 0.312500 0.875000
vt 0.291667 0.875000
vt 0.312500 0.937500
vt 0.291667 0.937500
vt 0.270833 0.625000
vt 0.270833 0.562500
vt 0.270833 0.687500
vt 0.270833 0.750000
vt 0.270833 0.812500
vt 0.270833 0.875000
vt 0.270833 0.937500
vt 0.250000 0.625000
vt 0.250000 0.562500
vt 0.250000 0.687500
vt 0.250000 0.750000
vt 0.250000 0.812500
vt 0.250000 0.875000
vt 0.250000 0.937500
vt 0.229167 0.625000
vt 0.229167 0.562500
vt 0.229167 0.687500
vt 0.229167 0.750000
vt 0.229167 0.812500
vt 0.229167 0.875000
vt 0.229167 0.937500
vt 0.208333 0.625000
vt 0.208333 0.562500
vt 0.208333 0.687500
vt 0.208333 0.750000
vt 0.208333 0.812500
vt 0.208333 0.875000
vt 0.208333 0.937500
vt 0.187500 0.625000
vt 0.187500 0.562500
vt 0.187500 0.687500
vt 0.187500 0.750000
vt 0.187500 0.812500
vt 0.187500 0.875000
vt 0.187500 0.937500
vt 0.312500 0.500000
vt 0.312500 1.000000
vt 0.291667 1.000000
vt 0.270833 1.000000
vt 0.250000 1.000000
vt 0.229167 1.000000
vt 0.208333 1.000000
vt 0.187500 1.000000
vt 0.166667 1.000000
vt 0.166667 0.937500
vt 0.166667 0.875000
vt 0.166667 0.812500
vt 0.166667 0.750000
vt 0.166667 0.687500
vt 0.166667 0.625000
vt 0.166667 0.562500
vt 0.187500 0.500000
vt 0.166667 0.500000
vt 0.208333 0.500000
vt 0.229167 0.500000
vt 0.250000 0.500000
vt 0.270833 0.500000
vt 0.291667 0.500000
vt 0.145833 0.562500
vt 0.145833 0.625000
vt 0.125000 0.625000
vt 0.125000 0.562500
vt 0.145833 0.687500
vt 0.125000 0.687500
vt 0.145833 0.750000
vt 0.125000 0.750000
vt 0.145833 0.812500
vt 0.125000 0.812500
vt 0.145833 0.875000
vt 0.125000 0.875000
vt 0.145833 0.937500
vt 0.125000 0.937500
vt 0.104167 0.625000
vt 0.104167 0.562500
vt 0.104167 0.687500
vt 0.104167 0.750000
vt 0.104167 0.812500
vt 0.104167 0.875000
vt 0.104167 0.937500
vt 0.083333 0.625000
vt 0.083333 0.562500
vt 0.083333 0.687500
vt 0.083333 0.750000
vt 0.083333 0.812500
vt 0.083333 0.875000
vt 0.083333 0.937500
vt 0.062500 0.625000
vt 0.062500 0.562500
vt 0.062500 0.687500
vt 0.062500 0.750000
vt 0.062500 0.812500
vt 0.062500 0.875000
vt 0.062500 0.937500
vt 0.041667 0.625000
vt 0.041667 0.562500
vt 0.041667 0.687500
vt 0.041667 0.750000
vt 0.041667 0.812500
vt 0.041667 0.875000
vt 0.041667 0.937500
vt 0.020833 0.625000
vt 0.020833 0.562500
vt 0.020833 0.687500
vt 0.020833 0.750000
vt 0.020833 0.812500
vt 0.020833 0.875000
vt 0.020833 0.937500
vt 0.145833 0.500000
vt 0.145833 1.000000
vt 0.125000 1.000000
vt 0.104167 1.000000
vt 0.083333 1.000000
vt 0.062500 1.000000
vt 0.041667 1.000000
vt 0.020833 1.000000
vt -0.000000 1.000000
vt -0.000000 0.937500
vt -0.000000 0.875000
vt -0.000000 0.812500
vt -0.000000 0.750000
vt -0.000000 0.687500
vt -0.000000 0.625000
vt -0.000000 0.562500
vt 0.020833 0.500000
vt -0.000000 0.500000
vt 0.041667 0.500000
vt 0.062500 0.500000
vt 0.083333 0.500000
vt 0.104167 0.500000
vt 0.125000 0.500000
vt 0.750000 0.453624
vt 0.776741 0.432312
vt 0.750000 0.403086
vt 0.723259 0.432312
vt 0.803646 0.410774
vt 0.777114 0.372922
vt 0.830090 0.388721
vt 0.803360 0.342421
vt 0.722886 0.372922
vt 0.696354 0.410774
vt 0.750000 0.333587
vt 0.775930 0.294912
vt 0.926344 0.351812
vt 0.921257 0.317998
vt 0.882576 0.326543
vt 0.894516 0.364314
vt 0.916057 0.283928
vt 0.870011 0.287980
vt 0.910181 0.250000
vt 0.856719 0.250000
vt 0.842897 0.334942
vt 0.862411 0.376846
vt 0.822389 0.291794
vt 0.801859 0.250000
vt 0.926344 0.148188
vt 0.894516 0.135686
vt 0.882576 0.173457
vt 0.921257 0.182002
vt 0.862411 0.123154
vt 0.842897 0.165058
vt 0.830090 0.111279
vt 0.803360 0.157579
vt 0.870011 0.212020
vt 0.916057 0.216072
vt 0.822389 0.208206
vt 0.775930 0.205088
vt 0.750000 0.046376
vt 0.723259 0.067688
vt 0.750000 0.096914
vt 0.776741 0.067688
vt 0.696354 0.089226
vt 0.722886 0.127078
vt 0.669910 0.111279
vt 0.696640 0.157579
vt 0.777114 0.127078
vt 0.803646 0.089226
vt 0.750000 0.166413
vt 0.724070 0.205088
vt 0.573656 0.148188
vt 0.578743 0.182002
vt 0.617424 0.173457
vt 0.605484 0.135686
vt 0.583943 0.216072
vt 0.629989 0.212020
vt 0.589819 0.250000
vt 0.643281 0.250000
vt 0.657103 0.165058
vt 0.637589 0.123154
vt 0.677611 0.208206
vt 0.698141 0.250000
vt 0.573656 0.351812
vt 0.605483 0.364314
vt 0.617424 0.326543
vt 0.578743 0.317998
vt 0.637589 0.376846
vt 0.657103 0.334942
vt 0.669910 0.388721
vt 0.696640 0.342421
vt 0.629989 0.287980
vt 0.583943 0.283928
vt 0.677611 0.291794
vt 0.724070 0.294912
vt 0.750000 0.250000
vt 0.750000 0.490000
vt 0.775981 0.475000
vt 0.724019 0.475000
vt 0.801962 0.460000
vt 0.827942 0.445000
vt 0.853923 0.430000
vt 0.698038 0.460000
vt 0.672058 0.445000
vt 0.646077 0.430000
vt 0.957846 0.370000
vt 0.957846 0.340000
vt 0.931865 0.385000
vt 0.957846 0.310000
vt 0.957846 0.280000
vt 0.957846 0.250000
vt 0.905885 0.400000
vt 0.879904 0.415000
vt 0.957846 0.130000
vt 0.931865 0.115000
vt 0.957846 0.160000
vt 0.905885 0.100000
vt 0.879904 0.085000
vt 0.853923 0.070000
vt 0.957846 0.190000
vt 0.957846 0.220000
vt 0.750000 0.010000
vt 0.724019 0.025000
vt 0.775981 0.025000
vt 0.698038 0.040000
vt 0.672058 0.055000
vt 0.646077 0.070000
vt 0.801962 0.040000
vt 0.827942 0.055000
vt 0.542154 0.130000
vt 0.542154 0.160000
vt 0.568135 0.115000
vt 0.542154 0.190000
vt 0.542154 0.220000
vt 0.542154 0.250000
vt 0.594115 0.100000
vt 0.620096 0.085000
vt 0.542154 0.370000
vt 0.568135 0.385000
vt 0.542154 0.340000
vt 0.594115 0.400000
vt 0.620096 0.415000
vt 0.542154 0.310000
vt 0.542154 0.280000
vn 0.5000 0.0000 -0.8660
vn 1.0000 0.0000 -0.0000
vn 1.0000 0.0001 -0.0000
vn 1.0000 -0.0001 -0.0000
vn 0.5000 0.0000 0.8660
vn -0.5000 0.0000 0.8660
vn 0.0000 1.0000 0.0000
vn -1.0000 -0.0000 0.0000
vn -1.0000 0.0001 0.0000
vn -1.0000 -0.0001 0.0000
vn -0.5000 0.0000 -0.8660
vn -0.5000 0.0001 -0.8660
vn -0.0000 -1.0000 -0.0000
usemtl None
s off
f 139/1/1 140/2/1 147/3/1 146/4/1
f 140/2/1 141/5/1 148/6/1 147/3/1
f 141/5/1 142/7/1 149/8/1 148/6/1
f 142/7/1 143/9/1 150/10/1 149/8/1
f 143/9/1 144/11/1 151/12/1 150/10/1
f 144/11/1 145/13/1 152/14/1 151/12/1
f 146/4/1 147/3/1 154/15/1 153/16/1
f 147/3/1 148/6/1 155/17/1 154/15/1
f 148/6/1 149/8/1 156/18/1 155/17/1
f 149/8/1 150/10/1 157/19/1 156/18/1
f 150/10/1 151/12/1 158/20/1 157/19/1
f 151/12/1 152/14/1 159/21/1 158/20/1
f 153/16/1 154/15/1 161/22/1 160/23/1
f 154/15/1 155/17/1 162/24/1 161/22/1
f 155/17/1 156/18/1 163/25/1 162/24/1
f 156/18/1 157/19/1 164/26/1 163/25/1
f 157/19/1 158/20/1 165/27/1 164/26/1
f 158/20/1 159/21/1 166/28/1 165/27/1
f 160/23/1 161/22/1 168/29/1 167/30/1
f 161/22/1 162/24/1 169/31/1 168/29/1
f 162/24/1 163/25/1 170/32/1 169/31/1
f 163/25/1 164/26/1 171/33/1 170/32/1
f 164/26/1 165/27/1 172/34/1 171/33/1
f 165/27/1 166/28/1 173/35/1 172/34/1
f 167/30/1 168/29/1 175/36/1 174/37/1
f 168/29/1 169/31/1 176/38/1 175/36/1
f 169/31/1 170/32/1 177/39/1 176/38/1
f 170/32/1 171/33/1 178/40/1 177/39/1
f 171/33/1 172/34/1 179/41/1 178/40/1
f 172/34/1 173/35/1 180/42/1 179/41/1
f 174/37/1 175/36/1 182/43/1 181/44/1
f 175/36/1 176/38/1 183/45/1 182/43/1
f 176/38/1 177/39/1 184/46/1 183/45/1
f 177/39/1 178/40/1 185/47/1 184/46/1
f 178/40/1 179/41/1 186/48/1 185/47/1
f 179/41/1 180/42/1 187/49/1 186/48/1
f 1/50/1 27/51/1 139/1/1 13/52/1
f 27/51/1 28/53/1 140/2/1 139/1/1
f 28/53/1 29/54/1 141/5/1 140/2/1
f 29/54/1 30/55/1 142/7/1 141/5/1
f 30/55/1 31/56/1 143/9/1 142/7/1
f 31/56/1 32/57/1 144/11/1 143/9/1
f 32/57/1 33/58/1 145/13/1 144/11/1
f 33/58/1 2/59/1 26/60/1 145/13/1
f 145/13/1 26/60/1 25/61/1 152/14/1
f 152/14/1 25/61/1 24/62/1 159/21/1
f 159/21/1 24/62/1 23/63/1 166/28/1
f 166/28/1 23/63/1 22/64/1 173/35/1
f 173/35/1 22/64/1 21/65/1 180/42/1
f 180/42/1 21/65/1 20/66/1 187/49/1
f 187/49/1 20/66/1 4/67/1 34/68/1
f 186/48/1 187/49/1 34/68/1 35/69/1
f 185/47/1 186/48/1 35/69/1 36/70/1
f 184/46/1 185/47/1 36/70/1 37/71/1
f 183/45/1 184/46/1 37/71/1 38/72/1
f 182/43/1 183/45/1 38/72/1 39/73/1
f 181/44/1 182/43/1 39/73/1 40/74/1
f 19/75/1 181/44/1 40/74/1 3/76/1
f 18/77/1 174/37/1 181/44/1 19/75/1
f 17/78/1 167/30/1 174/37/1 18/77/1
f 16/79/1 160/23/1 167/30/1 17/78/1
f 15/80/1 153/16/1 160/23/1 16/79/1
f 14/81/1 146/4/1 153/16/1 15/80/1
f 13/52/1 139/1/1 146/4/1 14/81/1
f 188/82/2 189/83/2 196/84/2 195/85/2
f 189/83/2 190/86/2 197/87/2 196/84/2
f 190/86/2 191/88/2 198/89/2 197/87/2
f 191/88/3 192/90/3 199/91/3 198/89/3
f 192/90/2 193/92/2 200/93/2 199/91/2
f 193/92/2 194/94/2 201/95/2 200/93/2
f 195/85/2 196/84/2 203/96/2 202/97/2
f 196/84/2 197/87/2 204/98/2 203/96/2
f 197/87/2 198/89/2 205/99/2 204/98/2
f 198/89/2 199/91/2 206/100/2 205/99/2
f 199/91/2 200/93/2 207/101/2 206/100/2
f 200/93/2 201/95/2 208/102/2 207/101/2
f 202/97/4 203/96/4 210/103/4 209/104/4
f 203/96/2 204/98/2 211/105/2 210/103/2
f 204/98/2 205/99/2 212/106/2 211/105/2
f 205/99/2 206/100/2 213/107/2 212/106/2
f 206/100/2 207/101/2 214/108/2 213/107/2
f 207/101/3 208/102/3 215/109/3 214/108/3
f 209/104/2 210/103/2 217/110/2 216/111/2
f 210/103/2 211/105/2 218/112/2 217/110/2
f 211/105/2 212/106/2 219/113/2 218/112/2
f 212/106/2 213/107/2 220/114/2 219/113/2
f 213/107/4 214/108/4 221/115/4 220/114/4
f 214/108/3 215/109/3 222/116/3 221/115/3
f 216/111/2 217/110/2 224/117/2 223/118/2
f 217/110/2 218/112/2 225/119/2 224/117/2
f 218/112/2 219/113/2 226/120/2 225/119/2
f 219/113/2 220/114/2 227/121/2 226/120/2
f 220/114/2 221/115/2 228/122/2 227/121/2
f 221/115/2 222/116/2 229/123/2 228/122/2
f 223/118/2 224/117/2 231/124/2 230/125/2
f 224/117/2 225/119/2 232/126/2 231/124/2
f 225/119/2 226/120/2 233/127/2 232/126/2
f 226/120/2 227/121/2 234/128/2 233/127/2
f 227/121/2 228/122/2 235/129/2 234/128/2
f 228/122/2 229/123/2 236/130/2 235/129/2
f 3/76/3 40/74/3 188/82/3 41/131/3
f 40/74/2 39/73/2 189/83/2 188/82/2
f 39/73/2 38/72/2 190/86/2 189/83/2
f 38/72/2 37/71/2 191/88/2 190/86/2
f 37/71/2 36/70/2 192/90/2 191/88/2
f 36/70/2 35/69/2 193/92/2 192/90/2
f 35/69/2 34/68/2 194/94/2 193/92/2
f 34/68/2 4/67/2 54/132/2 194/94/2
f 194/94/2 54/132/2 53/133/2 201/95/2
f 201/95/2 53/133/2 52/134/2 208/102/2
f 208/102/4 52/134/4 51/135/4 215/109/4
f 215/109/2 51/135/2 50/136/2 222/116/2
f 222/116/2 50/136/2 49/137/2 229/123/2
f 229/123/2 49/137/2 48/138/2 236/130/2
f 236/130/2 48/138/2 6/139/2 55/140/2
f 235/129/2 236/130/2 55/140/2 56/141/2
f 234/128/2 235/129/2 56/141/2 57/142/2
f 233/127/2 234/128/2 57/142/2 58/143/2
f 232/126/2 233/127/2 58/143/2 59/144/2
f 231/124/2 232/126/2 59/144/2 60/145/2
f 230/125/2 231/124/2 60/145/2 61/146/2
f 47/147/2 230/125/2 61/146/2 5/148/2
f 46/149/2 223/118/2 230/125/2 47/147/2
f 45/150/2 216/111/2 223/118/2 46/149/2
f 44/151/2 209/104/2 216/111/2 45/150/2
f 43/152/3 202/97/3 209/104/3 44/151/3
f 42/153/2 195/85/2 202/97/2 43/152/2
f 41/131/2 188/82/2 195/85/2 42/153/2
f 237/154/5 238/155/5 245/156/5 244/157/5
f 238/155/5 239/158/5 246/159/5 245/156/5
f 239/158/5 240/160/5 247/161/5 246/159/5
f 240/160/5 241/162/5 248/163/5 247/161/5
f 241/162/5 242/164/5 249/165/5 248/163/5
f 242/164/5 243/166/5 250/167/5 249/165/5
f 244/157/5 245/156/5 252/168/5 251/169/5
f 245/156/5 246/159/5 253/170/5 252/168/5
f 246/159/5 247/161/5 254/171/5 253/170/5
f 247/161/5 248/163/5 255/172/5 254/171/5
f 248/163/5 249/165/5 256/173/5 255/172/5
f 249/165/5 250/167/5 257/174/5 256/173/5
f 251/169/5 252/168/5 259/175/5 258/176/5
f 252/168/5 253/170/5 260/177/5 259/175/5
f 253/170/5 254/171/5 261/178/5 260/177/5
f 254/171/5 255/172/5 262/179/5 261/178/5
f 255/172/5 256/173/5 263/180/5 262/179/5
f 256/173/5 257/174/5 264/181/5 263/180/5
f 258/176/5 259/175/5 266/182/5 265/183/5
f 259/175/5 260/177/5 267/184/5 266/182/5
f 260/177/5 261/178/5 268/185/5 267/184/5
f 261/178/5 262/179/5 269/186/5 268/185/5
f 262/179/5 263/180/5 270/187/5 269/186/5
f 263/180/5 264/181/5 271/188/5 270/187/5
f 265/183/5 266/182/5 273/189/5 272/190/5
f 266/182/5 267/184/5 274/191/5 273/189/5
f 267/184/5 268/185/5 275/192/5 274/191/5
f 268/185/5 269/186/5 276/193/5 275/192/5
f 269/186/5 270/187/5 277/194/5 276/193/5
f 270/187/5 271/188/5 278/195/5 277/194/5
f 272/190/5 273/189/5 280/196/5 279/197/5
f 273/189/5 274/191/5 281/198/5 280/196/5
f 274/191/5 275/192/5 282/199/5 281/198/5
f 275/192/5 276/193/5 283/200/5 282/199/5
f 276/193/5 277/194/5 284/201/5 283/200/5
f 277/194/5 278/195/5 285/202/5 284/201/5
f 5/148/5 61/146/5 237/154/5 62/203/5
f 61/146/5 60/145/5 238/155/5 237/154/5
f 60/145/5 59/144/5 239/158/5 238/155/5
f 59/144/5 58/143/5 240/160/5 239/158/5
f 58/143/5 57/142/5 241/162/5 240/160/5
f 57/142/5 56/141/5 242/164/5 241/162/5
f 56/141/5 55/140/5 243/166/5 242/164/5
f 55/140/5 6/139/5 75/204/5 243/166/5
f 243/166/5 75/204/5 74/205/5 250/167/5
f 250/167/5 74/205/5 73/206/5 257/174/5
f 257/174/5 73/206/5 72/207/5 264/181/5
f 264/181/5 72/207/5 71/208/5 271/188/5
f 271/188/5 71/208/5 70/209/5 278/195/5
f 278/195/5 70/209/5 69/210/5 285/202/5
f 285/202/5 69/210/5 8/211/5 76/212/5
f 284/201/5 285/202/5 76/212/5 77/213/5
f 283/200/5 284/201/5 77/213/5 78/214/5
f 282/199/5 283/200/5 78/214/5 79/215/5
f 281/198/5 282/199/5 79/215/5 80/216/5
f 280/196/5 281/198/5 80/216/5 81/217/5
f 279/197/5 280/196/5 81/217/5 82/218/5
f 68/219/5 279/197/5 82/218/5 7/220/5
f 67/221/5 272/190/5 279/197/5 68/219/5
f 66/222/5 265/183/5 272/190/5 67/221/5
f 65/223/5 258/176/5 265/183/5 66/222/5
f 64/224/5 251/169/5 258/176/5 65/223/5
f 63/225/5 244/157/5 251/169/5 64/224/5
f 62/203/5 237/154/5 244/157/5 63/225/5
f 286/226/6 287/227/6 294/228/6 293/229/6
f 287/227/6 288/230/6 295/231/6 294/228/6
f 288/230/6 289/232/6 296/233/6 295/231/6
f 289/232/6 290/234/6 297/235/6 296/233/6
f 290/234/6 291/236/6 298/237/6 297/235/6
f 291/236/6 292/238/6 299/239/6 298/237/6
f 293/229/6 294/228/6 301/240/6 300/241/6
f 294/228/6 295/231/6 302/242/6 301/240/6
f 295/231/6 296/233/6 303/243/6 302/242/6
f 296/233/6 297/235/6 304/244/6 303/243/6
f 297/235/6 298/237/6 305/245/6 304/244/6
f 298/237/6 299/239/6 306/246/6 305/245/6
f 300/241/6 301/240/6 308/247/6 307/248/6
f 301/240/6 302/242/6 309/249/6 308/247/6
f 302/242/6 303/243/6 310/250/6 309/249/6
f 303/243/6 304/244/6 311/251/6 310/250/6
f 304/244/6 305/245/6 312/252/6 311/251/6
f 305/245/6 306/246/6 313/253/6 312/252/6
f 307/248/6 308/247/6 315/254/6 314/255/6
f 308/247/6 309/249/6 316/256/6 315/254/6
f 309/249/6 310/250/6 317/257/6 316/256/6
f 310/250/6 311/251/6 318/258/6 317/257/6
f 311/251/6 312/252/6 319/259/6 318/258/6
f 312/252/6 313/253/6 320/260/6 319/259/6
f 314/255/6 315/254/6 322/261/6 321/262/6
f 315/254/6 316/256/6 323/263/6 322/261/6
f 316/256/6 317/257/6 324/264/6 323/263/6
f 317/257/6 318/258/6 325/265/6 324/264/6
f 318/258/6 319/259/6 326/266/6 325/265/6
f 319/259/6 320/260/6 327/267/6 326/266/6
f 321/262/6 322/261/6 329/268/6 328/269/6
f 322/261/6 323/263/6 330/270/6 329/268/6
f 323/263/6 324/264/6 331/271/6 330/270/6
f 324/264/6 325/265/6 332/272/6 331/271/6
f 325/265/6 326/266/6 333/273/6 332/272/6
f 326/266/6 327/267/6 334/274/6 333/273/6
f 7/220/6 82/218/6 286/226/6 83/275/6
f 82/218/6 81/217/6 287/227/6 286/226/6
f 81/217/6 80/216/6 288/230/6 287/227/6
f 80/216/6 79/215/6 289/232/6 288/230/6
f 79/215/6 78/214/6 290/234/6 289/232/6
f 78/214/6 77/213/6 291/236/6 290/234/6
f 77/213/6 76/212/6 292/238/6 291/236/6
f 76/212/6 8/211/6 96/276/6 292/238/6
f 292/238/6 96/276/6 95/277/6 299/239/6
f 299/239/6 95/277/6 94/278/6 306/246/6
f 306/246/6 94/278/6 93/279/6 313/253/6
f 313/253/6 93/279/6 92/280/6 320/260/6
f 320/260/6 92/280/6 91/281/6 327/267/6
f 327/267/6 91/281/6 90/282/6 334/274/6
f 334/274/6 90/282/6 10/283/6 97/284/6
f 333/273/6 334/274/6 97/284/6 98/285/6
f 332/272/6 333/273/6 98/285/6 99/286/6
f 331/271/6 332/272/6 99/286/6 100/287/6
f 330/270/6 331/271/6 100/287/6 101/288/6
f 329/268/6 330/270/6 101/288/6 102/289/6
f 328/269/6 329/268/6 102/289/6 103/290/6
f 89/291/6 328/269/6 103/290/6 9/292/6
f 88/293/6 321/262/6 328/269/6 89/291/6
f 87/294/6 314/255/6 321/262/6 88/293/6
f 86/295/6 307/248/6 314/255/6 87/294/6
f 85/296/6 300/241/6 307/248/6 86/295/6
f 84/297/6 293/229/6 300/241/6 85/296/6
f 83/275/6 286/226/6 293/229/6 84/297/6
f 336/298/7 337/299/7 341/300/7 340/301/7
f 337/299/7 338/302/7 342/303/7 341/300/7
f 338/302/7 339/304/7 343/305/7 342/303/7
f 340/301/7 341/300/7 345/306/7 344/307/7
f 341/300/7 342/303/7 346/308/7 345/306/7
f 342/303/7 343/305/7 347/309/7 346/308/7
f 348/310/7 349/311/7 353/312/7 352/313/7
f 349/311/7 350/314/7 354/315/7 353/312/7
f 350/314/7 351/316/7 355/317/7 354/315/7
f 352/313/7 353/312/7 357/318/7 356/319/7
f 353/312/7 354/315/7 358/320/7 357/318/7
f 354/315/7 355/317/7 359/321/7 358/320/7
f 360/322/7 361/323/7 365/324/7 364/325/7
f 361/323/7 362/326/7 366/327/7 365/324/7
f 362/326/7 363/328/7 367/329/7 366/327/7
f 364/325/7 365/324/7 369/330/7 368/331/7
f 365/324/7 366/327/7 370/332/7 369/330/7
f 366/327/7 367/329/7 371/333/7 370/332/7
f 372/334/7 373/335/7 377/336/7 376/337/7
f 373/335/7 374/338/7 378/339/7 377/336/7
f 374/338/7 375/340/7 379/341/7 378/339/7
f 376/337/7 377/336/7 381/342/7 380/343/7
f 377/336/7 378/339/7 382/344/7 381/342/7
f 378/339/7 379/341/7 383/345/7 382/344/7
f 384/346/7 385/347/7 389/348/7 388/349/7
f 385/347/7 386/350/7 390/351/7 389/348/7
f 386/350/7 387/352/7 391/353/7 390/351/7
f 388/349/7 389/348/7 393/354/7 392/355/7
f 389/348/7 390/351/7 394/356/7 393/354/7
f 390/351/7 391/353/7 395/357/7 394/356/7
f 396/358/7 397/359/7 401/360/7 400/361/7
f 397/359/7 398/362/7 402/363/7 401/360/7
f 398/362/7 399/364/7 403/365/7 402/363/7
f 400/361/7 401/360/7 405/366/7 404/367/7
f 401/360/7 402/363/7 406/368/7 405/366/7
f 402/363/7 403/365/7 407/369/7 406/368/7
f 356/319/7 357/318/7 343/305/7 339/304/7
f 357/318/7 358/320/7 347/309/7 343/305/7
f 368/331/7 369/330/7 355/317/7 351/316/7
f 369/330/7 370/332/7 359/321/7 355/317/7
f 380/343/7 381/342/7 367/329/7 363/328/7
f 381/342/7 382/344/7 371/333/7 367/329/7
f 392/355/7 393/354/7 379/341/7 375/340/7
f 393/354/7 394/356/7 383/345/7 379/341/7
f 404/367/7 405/366/7 391/353/7 387/352/7
f 405/366/7 406/368/7 395/357/7 391/353/7
f 344/307/7 345/306/7 403/365/7 399/364/7
f 345/306/7 346/308/7 407/369/7 403/365/7
f 346/308/7 347/309/7 335/370/7 407/369/7
f 358/320/7 359/321/7 335/370/7 347/309/7
f 370/332/7 371/333/7 335/370/7 359/321/7
f 382/344/7 383/345/7 335/370/7 371/333/7
f 394/356/7 395/357/7 335/370/7 383/345/7
f 406/368/7 407/369/7 335/370/7 395/357/7
f 4/371/7 20/372/7 336/298/7 54/373/7
f 20/372/7 21/374/7 337/299/7 336/298/7
f 21/374/7 22/375/7 338/302/7 337/299/7
f 22/375/7 23/376/7 339/304/7 338/302/7
f 54/373/7 336/298/7 340/301/7 53/377/7
f 53/377/7 340/301/7 344/307/7 52/378/7
f 52/378/7 344/307/7 399/364/7 51/379/7
f 2/380/7 132/381/7 348/310/7 26/382/7
f 132/381/7 133/383/7 349/311/7 348/310/7
f 133/383/7 134/384/7 350/314/7 349/311/7
f 134/384/7 135/385/7 351/316/7 350/314/7
f 26/382/7 348/310/7 352/313/7 25/386/7
f 25/386/7 352/313/7 356/319/7 24/387/7
f 24/387/7 356/319/7 339/304/7 23/376/7
f 12/388/7 111/389/7 360/322/7 138/390/7
f 111/389/7 112/391/7 361/323/7 360/322/7
f 112/391/7 113/392/7 362/326/7 361/323/7
f 113/392/7 114/393/7 363/328/7 362/326/7
f 138/390/7 360/322/7 364/325/7 137/394/7
f 137/394/7 364/325/7 368/331/7 136/395/7
f 136/395/7 368/331/7 351/316/7 135/385/7
f 10/396/7 90/397/7 372/334/7 117/398/7
f 90/397/7 91/399/7 373/335/7 372/334/7
f 91/399/7 92/400/7 374/338/7 373/335/7
f 92/400/7 93/401/7 375/340/7 374/338/7
f 117/398/7 372/334/7 376/337/7 116/402/7
f 116/402/7 376/337/7 380/343/7 115/403/7
f 115/403/7 380/343/7 363/328/7 114/393/7
f 8/404/7 69/405/7 384/346/7 96/406/7
f 69/405/7 70/407/7 385/347/7 384/346/7
f 70/407/7 71/408/7 386/350/7 385/347/7
f 71/408/7 72/409/7 387/352/7 386/350/7
f 96/406/7 384/346/7 388/349/7 95/410/7
f 95/410/7 388/349/7 392/355/7 94/411/7
f 94/411/7 392/355/7 375/340/7 93/401/7
f 6/412/7 48/413/7 396/358/7 75/414/7
f 48/413/7 49/415/7 397/359/7 396/358/7
f 49/415/7 50/416/7 398/362/7 397/359/7
f 50/416/7 51/379/7 399/364/7 398/362/7
f 75/414/7 396/358/7 400/361/7 74/417/7
f 74/417/7 400/361/7 404/367/7 73/418/7
f 73/418/7 404/367/7 387/352/7 72/409/7
f 408/419/8 409/420/8 416/421/8 415/422/8
f 409/420/8 410/423/8 417/424/8 416/421/8
f 410/423/8 411/425/8 418/426/8 417/424/8
f 411/425/9 412/427/9 419/428/9 418/426/9
f 412/427/8 413/429/8 420/430/8 419/428/8
f 413/429/8 414/431/8 421/432/8 420/430/8
f 415/422/8 416/421/8 423/433/8 422/434/8
f 416/421/8 417/424/8 424/435/8 423/433/8
f 417/424/8 418/426/8 425/436/8 424/435/8
f 418/426/9 419/428/9 426/437/9 425/436/9
f 419/428/8 420/430/8 427/438/8 426/437/8
f 420/430/8 421/432/8 428/439/8 427/438/8
f 422/434/10 423/433/10 430/440/10 429/441/10
f 423/433/8 424/435/8 431/442/8 430/440/8
f 424/435/8 425/436/8 432/443/8 431/442/8
f 425/436/8 426/437/8 433/444/8 432/443/8
f 426/437/8 427/438/8 434/445/8 433/444/8
f 427/438/8 428/439/8 435/446/8 434/445/8
f 429/441/8 430/440/8 437/447/8 436/448/8
f 430/440/8 431/442/8 438/449/8 437/447/8
f 431/442/8 432/443/8 439/450/8 438/449/8
f 432/443/8 433/444/8 440/451/8 439/450/8
f 433/444/8 434/445/8 441/452/8 440/451/8
f 434/445/8 435/446/8 442/453/8 441/452/8
f 436/448/8 437/447/8 444/454/8 443/455/8
f 437/447/8 438/449/8 445/456/8 444/454/8
f 438/449/8 439/450/8 446/457/8 445/456/8
f 439/450/10 440/451/10 447/458/10 446/457/10
f 440/451/8 441/452/8 448/459/8 447/458/8
f 441/452/8 442/453/8 449/460/8 448/459/8
f 443/455/8 444/454/8 451/461/8 450/462/8
f 444/454/8 445/456/8 452/463/8 451/461/8
f 445/456/8 446/457/8 453/464/8 452/463/8
f 446/457/8 447/458/8 454/465/8 453/464/8
f 447/458/8 448/459/8 455/466/8 454/465/8
f 448/459/8 449/460/8 456/467/8 455/466/8
f 9/292/9 103/290/9 408/419/9 104/468/9
f 103/290/8 102/289/8 409/420/8 408/419/8
f 102/289/8 101/288/8 410/423/8 409/420/8
f 101/288/8 100/287/8 411/425/8 410/423/8
f 100/287/8 99/286/8 412/427/8 411/425/8
f 99/286/10 98/285/10 413/429/10 412/427/10
f 98/285/8 97/284/8 414/431/8 413/429/8
f 97/284/8 10/283/8 117/469/8 414/431/8
f 414/431/8 117/469/8 116/470/8 421/432/8
f 421/432/8 116/470/8 115/471/8 428/439/8
f 428/439/8 115/471/8 114/472/8 435/446/8
f 435/446/8 114/472/8 113/473/8 442/453/8
f 442/453/8 113/473/8 112/474/8 449/460/8
f 449/460/8 112/474/8 111/475/8 456/467/8
f 456/467/8 111/475/8 12/476/8 118/477/8
f 455/466/8 456/467/8 118/477/8 119/478/8
f 454/465/8 455/466/8 119/478/8 120/479/8
f 453/464/8 454/465/8 120/479/8 121/480/8
f 452/463/8 453/464/8 121/480/8 122/481/8
f 451/461/8 452/463/8 122/481/8 123/482/8
f 450/462/10 451/461/10 123/482/10 124/483/10
f 110/484/8 450/462/8 124/483/8 11/485/8
f 109/486/8 443/455/8 450/462/8 110/484/8
f 108/487/8 436/448/8 443/455/8 109/486/8
f 107/488/8 429/441/8 436/448/8 108/487/8
f 106/489/9 422/434/9 429/441/9 107/488/9
f 105/490/8 415/422/8 422/434/8 106/489/8
f 104/468/8 408/419/8 415/422/8 105/490/8
f 457/491/11 458/492/11 465/493/11 464/494/11
f 458/492/11 459/495/11 466/496/11 465/493/11
f 459/495/11 460/497/11 467/498/11 466/496/11
f 460/497/11 461/499/11 468/500/11 467/498/11
f 461/499/11 462/501/11 469/502/11 468/500/11
f 462/501/11 463/503/11 470/504/11 469/502/11
f 464/494/11 465/493/11 472/505/11 471/506/11
f 465/493/11 466/496/11 473/507/11 472/505/11
f 466/496/11 467/498/11 474/508/11 473/507/11
f 467/498/11 468/500/11 475/509/11 474/508/11
f 468/500/11 469/502/11 476/510/11 475/509/11
f 469/502/11 470/504/11 477/511/11 476/510/11
f 471/506/11 472/505/11 479/512/11 478/513/11
f 472/505/11 473/507/11 480/514/11 479/512/11
f 473/507/11 474/508/11 481/515/11 480/514/11
f 474/508/11 475/509/11 482/516/11 481/515/11
f 475/509/11 476/510/11 483/517/11 482/516/11
f 476/510/11 477/511/11 484/518/11 483/517/11
f 478/513/11 479/512/11 486/519/11 485/520/11
f 479/512/11 480/514/11 487/521/11 486/519/11
f 480/514/11 481/515/11 488/522/11 487/521/11
f 481/515/11 482/516/11 489/523/11 488/522/11
f 482/516/11 483/517/11 490/524/11 489/523/11
f 483/517/11 484/518/11 491/525/11 490/524/11
f 485/520/11 486/519/11 493/526/11 492/527/11
f 486/519/11 487/521/11 494/528/11 493/526/11
f 487/521/11 488/522/11 495/529/11 494/528/11
f 488/522/11 489/523/11 496/530/11 495/529/11
f 489/523/11 490/524/11 497/531/11 496/530/11
f 490/524/11 491/525/11 498/532/11 497/531/11
f 492/527/11 493/526/11 500/533/11 499/534/11
f 493/526/11 494/528/11 501/535/11 500/533/11
f 494/528/11 495/529/11 502/536/11 501/535/11
f 495/529/11 496/530/11 503/537/11 502/536/11
f 496/530/11 497/531/11 504/538/11 503/537/11
f 497/531/11 498/532/11 505/539/11 504/538/11
f 11/485/11 124/483/11 457/491/11 125/540/11
f 124/483/11 123/482/11 458/492/11 457/491/11
f 123/482/11 122/481/11 459/495/11 458/492/11
f 122/481/11 121/480/11 460/497/11 459/495/11
f 121/480/11 120/479/11 461/499/11 460/497/11
f 120/479/11 119/478/11 462/501/11 461/499/11
f 119/478/11 118/477/11 463/503/11 462/501/11
f 118/477/11 12/476/11 138/541/11 463/503/11
f 463/503/11 138/541/11 137/542/11 470/504/11
f 470/504/11 137/542/11 136/543/11 477/511/11
f 477/511/12 136/543/12 135/544/12 484/518/12
f 484/518/11 135/544/11 134/545/11 491/525/11
f 491/525/11 134/545/11 133/546/11 498/532/11
f 498/532/11 133/546/11 132/547/11 505/539/11
f 505/539/11 132/547/11 2/548/11 33/549/11
f 504/538/11 505/539/11 33/549/11 32/550/11
f 503/537/11 504/538/11 32/550/11 31/551/11
f 502/536/11 503/537/11 31/551/11 30/552/11
f 501/535/11 502/536/11 30/552/11 29/553/11
f 500/533/11 501/535/11 29/553/11 28/554/11
f 499/534/11 500/533/11 28/554/11 27/555/11
f 131/556/11 499/534/11 27/555/11 1/557/11
f 130/558/11 492/527/11 499/534/11 131/556/11
f 129/559/11 485/520/11 492/527/11 130/558/11
f 128/560/11 478/513/11 485/520/11 129/559/11
f 127/561/11 471/506/11 478/513/11 128/560/11
f 126/562/11 464/494/11 471/506/11 127/561/11
f 125/540/11 457/491/11 464/494/11 126/562/11
f 507/563/13 508/564/13 512/565/13 511/566/13
f 508/564/13 509/567/13 513/568/13 512/565/13
f 509/567/13 510/569/13 514/570/13 513/568/13
f 511/566/13 512/565/13 516/571/13 515/572/13
f 512/565/13 513/568/13 517/573/13 516/571/13
f 513/568/13 514/570/13 518/574/13 517/573/13
f 519/575/13 520/576/13 524/577/13 523/578/13
f 520/576/13 521/579/13 525/580/13 524/577/13
f 521/579/13 522/581/13 526/582/13 525/580/13
f 523/578/13 524/577/13 528/583/13 527/584/13
f 524/577/13 525/580/13 529/585/13 528/583/13
f 525/580/13 526/582/13 530/586/13 529/585/13
f 531/587/13 532/588/13 536/589/13 535/590/13
f 532/588/13 533/591/13 537/592/13 536/589/13
f 533/591/13 534/593/13 538/594/13 537/592/13
f 535/590/13 536/589/13 540/595/13 539/596/13
f 536/589/13 537/592/13 541/597/13 540/595/13
f 537/592/13 538/594/13 542/598/13 541/597/13
f 543/599/13 544/600/13 548/601/13 547/602/13
f 544/600/13 545/603/13 549/604/13 548/601/13
f 545/603/13 546/605/13 550/606/13 549/604/13
f 547/602/13 548/601/13 552/607/13 551/608/13
f 548/601/13 549/604/13 553/609/13 552/607/13
f 549/604/13 550/606/13 554/610/13 553/609/13
f 555/611/13 556/612/13 560/613/13 559/614/13
f 556/612/13 557/615/13 561/616/13 560/613/13
f 557/615/13 558/617/13 562/618/13 561/616/13
f 559/614/13 560/613/13 564/619/13 563/620/13
f 560/613/13 561/616/13 565/621/13 564/619/13
f 561/616/13 562/618/13 566/622/13 565/621/13
f 567/623/13 568/624/13 572/625/13 571/626/13
f 568/624/13 569/627/13 573/628/13 572/625/13
f 569/627/13 570/629/13 574/630/13 573/628/13
f 571/626/13 572/625/13 576/631/13 575/632/13
f 572/625/13 573/628/13 577/633/13 576/631/13
f 573/628/13 574/630/13 578/634/13 577/633/13
f 527/584/13 528/583/13 514/570/13 510/569/13
f 528/583/13 529/585/13 518/574/13 514/570/13
f 539/596/13 540/595/13 526/582/13 522/581/13
f 540/595/13 541/597/13 530/586/13 526/582/13
f 551/608/13 552/607/13 538/594/13 534/593/13
f 552/607/13 553/609/13 542/598/13 538/594/13
f 563/620/13 564/619/13 550/606/13 546/605/13
f 564/619/13 565/621/13 554/610/13 550/606/13
f 575/632/13 576/631/13 562/618/13 558/617/13
f 576/631/13 577/633/13 566/622/13 562/618/13
f 515/572/13 516/571/13 574/630/13 570/629/13
f 516/571/13 517/573/13 578/634/13 574/630/13
f 517/573/13 518/574/13 506/635/13 578/634/13
f 529/585/13 530/586/13 506/635/13 518/574/13
f 541/597/13 542/598/13 506/635/13 530/586/13
f 553/609/13 554/610/13 506/635/13 542/598/13
f 565/621/13 566/622/13 506/635/13 554/610/13
f 577/633/13 578/634/13 506/635/13 566/622/13
f 1/636/13 13/637/13 507/563/13 131/638/13
f 13/637/13 14/639/13 508/564/13 507/563/13
f 14/639/13 15/640/13 509/567/13 508/564/13
f 15/640/13 16/641/13 510/569/13 509/567/13
f 131/638/13 507/563/13 511/566/13 130/642/13
f 130/642/13 511/566/13 515/572/13 129/643/13
f 129/643/13 515/572/13 570/629/13 128/644/13
f 3/645/13 41/646/13 519/575/13 19/647/13
f 41/646/13 42/648/13 520/576/13 519/575/13
f 42/648/13 43/649/13 521/579/13 520/576/13
f 43/649/13 44/650/13 522/581/13 521/579/13
f 19/647/13 519/575/13 523/578/13 18/651/13
f 18/651/13 523/578/13 527/584/13 17/652/13
f 17/652/13 527/584/13 510/569/13 16/641/13
f 5/653/13 62/654/13 531/587/13 47/655/13
f 62/654/13 63/656/13 532/588/13 531/587/13
f 63/656/13 64/657/13 533/591/13 532/588/13
f 64/657/13 65/658/13 534/593/13 533/591/13
f 47/655/13 531/587/13 535/590/13 46/659/13
f 46/659/13 535/590/13 539/596/13 45/660/13
f 45/660/13 539/596/13 522/581/13 44/650/13
f 7/661/13 83/662/13 543/599/13 68/663/13
f 83/662/13 84/664/13 544/600/13 543/599/13
f 84/664/13 85/665/13 545/603/13 544/600/13
f 85/665/13 86/666/13 546/605/13 545/603/13
f 68/663/13 543/599/13 547/602/13 67/667/13
f 67/667/13 547/602/13 551/608/13 66/668/13
f 66/668/13 551/608/13 534/593/13 65/658/13
f 9/669/13 104/670/13 555/611/13 89/671/13
f 104/670/13 105/672/13 556/612/13 555/611/13
f 105/672/13 106/673/13 557/615/13 556/612/13
f 106/673/13 107/674/13 558/617/13 557/615/13
f 89/671/13 555/611/13 559/614/13 88/675/13
f 88/675/13 559/614/13 563/620/13 87/676/13
f 87/676/13 563/620/13 546/605/13 86/666/13
f 11/677/13 125/678/13 567/623/13 110/679/13
f 125/678/13 126/680/13 568/624/13 567/623/13
f 126/680/13 127/681/13 569/627/13 568/624/13
f 127/681/13 128/644/13 570/629/13 569/627/13
f 110/679/13 567/623/13 571/626/13 109/682/13
f 109/682/13 571/626/13 575/632/13 108/683/13
f 108/683/13 575/632/13 558/617/13 107/674/13
