# Blender 4.2.1 LTS
# www.blender.org
mtllib hexagon.mtl
o Cylinder
v -0.003399 -0.000580 -0.998121
v 0.862627 -0.000580 -0.498121
v 0.862627 -0.000580 0.501879
v -0.003399 -0.000580 1.001879
v -0.869424 -0.000580 0.501879
v -0.869424 -0.000580 -0.498121
v -0.003399 -0.000580 0.001883
v 0.862627 -18.351595 -0.498121
v -0.003399 -18.351595 -0.998121
v 0.862627 -18.351595 0.501879
v -0.003399 -18.351595 1.001879
v -0.869424 -18.351595 0.501879
v -0.869424 -18.351595 -0.498121
v -0.003399 -18.351595 0.001883
v 0.689422 -0.000580 -0.598121
v 0.516217 -0.000580 -0.698121
v 0.343012 -0.000580 -0.798121
v 0.169807 -0.000580 -0.898121
v 0.862627 -0.000580 0.301879
v 0.862627 -0.000580 0.101879
v 0.862627 -0.000580 -0.098121
v 0.862627 -0.000580 -0.298121
v 0.169807 -0.000580 0.901879
v 0.343012 -0.000580 0.801879
v 0.516217 -0.000580 0.701879
v 0.689422 -0.000580 0.601879
v -0.696219 -0.000580 0.601879
v -0.523014 -0.000580 0.701879
v -0.349809 -0.000580 0.801879
v -0.176604 -0.000580 0.901879
v -0.869424 -0.000580 -0.298121
v -0.869424 -0.000580 -0.098121
v -0.869424 -0.000580 0.101879
v -0.869424 -0.000580 0.301879
v -0.176604 -0.000580 -0.898121
v -0.349809 -0.000580 -0.798121
v -0.523014 -0.000580 -0.698121
v -0.696219 -0.000580 -0.598121
v -0.003399 -0.000580 -0.198117
v -0.003399 -0.000580 -0.398118
v -0.003399 -0.000580 -0.598119
v -0.003399 -0.000580 -0.798120
v -0.003399 -0.000580 0.801880
v -0.003399 -0.000580 0.601881
v -0.003399 -0.000580 0.401882
v -0.003399 -0.000580 0.201883
v -0.696219 -0.000580 -0.398120
v -0.523014 -0.000580 -0.298119
v -0.349809 -0.000580 -0.198118
v -0.176604 -0.000580 -0.098117
v 0.169807 -0.000580 0.101883
v 0.343012 -0.000580 0.201882
v 0.516217 -0.000580 0.301881
v 0.689422 -0.000580 0.401880
v -0.176604 -0.000580 0.101883
v -0.349809 -0.000580 0.201882
v -0.523014 -0.000580 0.301881
v -0.696219 -0.000580 0.401880
v 0.689422 -0.000580 -0.398120
v 0.516217 -0.000580 -0.298119
v 0.343012 -0.000580 -0.198118
v 0.169807 -0.000580 -0.098117
v 0.689422 -18.351595 -0.598121
v 0.516217 -18.351595 -0.698121
v 0.343012 -18.351595 -0.798121
v 0.169807 -18.351595 -0.898121
v 0.862627 -18.351595 0.301879
v 0.862627 -18.351595 0.101879
v 0.862627 -18.351595 -0.098121
v 0.862627 -18.351595 -0.298121
v 0.169807 -18.351595 0.901879
v 0.343012 -18.351595 0.801879
v 0.516217 -18.351595 0.701879
v 0.689422 -18.351595 0.601879
v -0.696219 -18.351595 0.601879
v -0.523014 -18.351595 0.701879
v -0.349809 -18.351595 0.801879
v -0.176604 -18.351595 0.901879
v -0.869424 -18.351595 -0.298121
v -0.869424 -18.351595 -0.098121
v -0.869424 -18.351595 0.101879
v -0.869424 -18.351595 0.301879
v -0.176604 -18.351595 -0.898121
v -0.349809 -18.351595 -0.798121
v -0.523014 -18.351595 -0.698121
v -0.696219 -18.351595 -0.598121
v -0.003399 -18.351595 -0.198117
v -0.003399 -18.351595 -0.398118
v -0.003399 -18.351595 -0.598119
v -0.003399 -18.351595 -0.798120
v -0.003399 -18.351595 0.801880
v -0.003399 -18.351595 0.601881
v -0.003399 -18.351595 0.401882
v -0.003399 -18.351595 0.201883
v -0.696219 -18.351595 -0.398120
v -0.523014 -18.351595 -0.298119
v -0.349809 -18.351595 -0.198118
v -0.176604 -18.351595 -0.098117
v 0.169807 -18.351595 0.101883
v 0.343012 -18.351595 0.201882
v 0.516217 -18.351595 0.301881
v 0.689422 -18.351595 0.401880
v -0.176604 -18.351595 0.101883
v -0.349809 -18.351595 0.201882
v -0.523014 -18.351595 0.301881
v -0.696219 -18.351595 0.401880
v 0.689422 -18.351595 -0.398120
v 0.516217 -18.351595 -0.298119
v 0.343012 -18.351595 -0.198118
v 0.169807 -18.351595 -0.098117
v -0.869424 -0.067793 -0.498121
v -0.003399 -0.067793 -0.998121
v -0.003399 -0.067793 1.001879
v -0.869424 -0.067793 0.501879
v 0.862627 -0.067793 -0.498121
v 0.862627 -0.067793 0.501879
v 0.689422 -0.067793 -0.598121
v 0.516217 -0.067793 -0.698121
v 0.343012 -0.067793 -0.798121
v 0.169807 -0.067793 -0.898121
v 0.169807 -0.067793 0.901879
v 0.343012 -0.067793 0.801879
v 0.516217 -0.067793 0.701879
v 0.689422 -0.067793 0.601879
v -0.869424 -0.067793 -0.298121
v -0.869424 -0.067793 -0.098121
v -0.869424 -0.067793 0.101879
v -0.869424 -0.067793 0.301879
v 0.862627 -0.067793 0.301879
v 0.862627 -0.067793 0.101879
v 0.862627 -0.067793 -0.098121
v 0.862627 -0.067793 -0.298121
v -0.696219 -0.067793 0.601879
v -0.523014 -0.067793 0.701879
v -0.349809 -0.067793 0.801879
v -0.176604 -0.067793 0.901879
v -0.176604 -0.067793 -0.898121
v -0.349809 -0.067793 -0.798121
v -0.523014 -0.067793 -0.698121
v -0.696219 -0.067793 -0.598121
v 0.169807 -18.351595 -0.698120
v 0.169806 -18.351595 -0.498119
v 0.343011 -18.351595 -0.598120
v 0.169807 -18.351595 -0.298118
v 0.343012 -18.351595 -0.398119
v 0.516217 -18.351595 -0.498120
v -0.696219 -18.351595 -0.198120
v -0.696219 -18.351595 0.001880
v -0.523014 -18.351595 -0.098119
v -0.696219 -18.351595 0.201880
v -0.523014 -18.351595 0.101881
v -0.349809 -18.351595 0.001882
v 0.169807 -18.351595 0.701880
v 0.343012 -18.351595 0.601880
v 0.169807 -18.351595 0.501881
v 0.516217 -18.351595 0.501880
v 0.343012 -18.351595 0.401881
v 0.169807 -18.351595 0.301882
v -0.176604 -18.351595 -0.698120
v -0.349809 -18.351595 -0.598120
v -0.176604 -18.351595 -0.498119
v -0.523014 -18.351595 -0.498120
v -0.349809 -18.351595 -0.398119
v -0.176604 -18.351595 -0.298118
v -0.523014 -18.351595 0.501880
v -0.349809 -18.351595 0.601880
v -0.349809 -18.351595 0.401881
v -0.176604 -18.351595 0.701880
v -0.176604 -18.351595 0.501881
v -0.176604 -18.351595 0.301882
v 0.516217 -0.000580 -0.498120
v 0.343012 -0.000580 -0.398119
v 0.343012 -0.000580 -0.598120
v 0.169807 -0.000580 -0.298118
v 0.169807 -0.000580 -0.498119
v 0.169807 -0.000580 -0.698120
v -0.349809 -0.000580 0.001882
v -0.523014 -0.000580 0.101881
v -0.523014 -0.000580 -0.098119
v -0.696219 -0.000580 0.201880
v -0.696219 -0.000580 0.001880
v -0.696219 -0.000580 -0.198120
v 0.169807 -0.000580 0.301882
v 0.343012 -0.000580 0.401881
v 0.169807 -0.000580 0.501881
v 0.516217 -0.000580 0.501880
v 0.343012 -0.000580 0.601880
v 0.169807 -0.000580 0.701880
v -0.176604 -0.000580 -0.298118
v -0.349809 -0.000580 -0.398119
v -0.176604 -0.000580 -0.498119
v -0.523014 -0.000580 -0.498120
v -0.349809 -0.000580 -0.598120
v -0.176604 -0.000580 -0.698120
v -0.176604 -0.000580 0.301882
v -0.176604 -0.000580 0.501881
v -0.349809 -0.000580 0.401881
v -0.176604 -0.000580 0.701880
v -0.349809 -0.000580 0.601880
v -0.523014 -0.000580 0.501880
v 0.689422 -18.351595 0.201880
v 0.689422 -18.351595 0.001880
v 0.516217 -18.351595 0.101881
v 0.689422 -18.351595 -0.198120
v 0.516217 -18.351595 -0.098119
v 0.343012 -18.351595 0.001882
v 0.343012 -0.000580 0.001882
v 0.516217 -0.000580 -0.098119
v 0.516217 -0.000580 0.101881
v 0.689422 -0.000580 -0.198120
v 0.689422 -0.000580 0.001880
v 0.689422 -0.000580 0.201880
vn -0.0000 -1.0000 -0.0000
vn -0.0000 1.0000 -0.0000
vn 0.5000 -0.0000 0.8660
vn 0.5000 -0.0000 -0.8660
vn -1.0000 -0.0000 -0.0000
vn 1.0000 -0.0000 -0.0000
vn -0.5000 -0.0000 -0.8660
vn -0.5000 -0.0000 0.8660
vt 0.457846 0.370000
vt 0.457846 0.322000
vt 0.416277 0.346000
vt 0.250000 0.010000
vt 0.208431 0.034000
vt 0.250000 0.058000
vt 0.042154 0.370000
vt 0.083723 0.394000
vt 0.083723 0.346000
vt 0.457846 0.130000
vt 0.416277 0.106000
vt 0.416277 0.154000
vt 0.042154 0.130000
vt 0.042154 0.178000
vt 0.083723 0.154000
vt 0.250000 0.249999
vt 0.250000 0.297999
vt 0.291569 0.273999
vt 0.208431 0.466000
vt 0.208431 0.466000
vt 0.250000 0.490000
vt 0.083723 0.106000
vt 0.083723 0.106000
vt 0.457846 0.178000
vt 0.457846 0.178000
vt 0.042154 0.322000
vt 0.042154 0.322000
vt 0.291569 0.034000
vt 0.374708 0.418000
vt 0.374708 0.418000
vt 0.416277 0.394000
vt 0.333138 0.442000
vt 0.333138 0.442000
vt 0.291569 0.466000
vt 0.333138 0.058000
vt 0.374708 0.082000
vt 0.374708 0.082000
vt 0.416277 0.106000
vt 0.042154 0.274000
vt 0.042154 0.226000
vt 0.042154 0.178000
vt 0.457846 0.226000
vt 0.457846 0.274000
vt 0.457846 0.322000
vt 0.125292 0.082000
vt 0.166862 0.058000
vt 0.208431 0.034000
vt 0.166862 0.442000
vt 0.125292 0.418000
vt 0.083723 0.394000
vt 0.250000 0.442000
vt 0.250000 0.394000
vt 0.291569 0.418000
vt 0.250000 0.345999
vt 0.291569 0.370000
vt 0.291569 0.321999
vt 0.333138 0.394000
vt 0.333138 0.346000
vt 0.374708 0.370000
vt 0.333138 0.297999
vt 0.374708 0.322000
vt 0.083723 0.298000
vt 0.083723 0.250000
vt 0.083723 0.202000
vt 0.125292 0.322000
vt 0.125292 0.274000
vt 0.166862 0.297999
vt 0.125292 0.226000
vt 0.166862 0.249999
vt 0.208431 0.273999
vt 0.125292 0.178000
vt 0.166862 0.201999
vt 0.208431 0.225999
vt 0.291569 0.082000
vt 0.333138 0.106000
vt 0.374708 0.130000
vt 0.250000 0.106000
vt 0.291569 0.130000
vt 0.250000 0.153999
vt 0.333138 0.154000
vt 0.291569 0.177999
vt 0.250000 0.201999
vt 0.374708 0.178000
vt 0.333138 0.201999
vt 0.291569 0.225999
vt 0.208431 0.418000
vt 0.166862 0.394000
vt 0.125292 0.370000
vt 0.208431 0.370000
vt 0.166862 0.346000
vt 0.208431 0.321999
vt 0.125292 0.130000
vt 0.166862 0.106000
vt 0.208431 0.082000
vt 0.166862 0.154000
vt 0.208431 0.130000
vt 0.208431 0.177999
vt 0.374708 0.370000
vt 0.333138 0.346000
vt 0.291569 0.321999
vt 0.333138 0.394000
vt 0.166862 0.249999
vt 0.125292 0.226000
vt 0.083723 0.202000
vt 0.125292 0.274000
vt 0.083723 0.250000
vt 0.291569 0.177999
vt 0.333138 0.154000
vt 0.333138 0.106000
vt 0.291569 0.082000
vt 0.208431 0.321999
vt 0.166862 0.346000
vt 0.125292 0.370000
vt 0.208431 0.370000
vt 0.166862 0.394000
vt 0.208431 0.130000
vt 0.166862 0.154000
vt 0.125292 0.130000
vt 0.416277 0.202000
vt 0.416277 0.250000
vt 0.416277 0.298000
vt 0.374708 0.226000
vt 0.374708 0.274000
vt 0.333138 0.249999
vt 0.333138 0.249999
vt 0.374708 0.226000
vt 0.416277 0.250000
vt 0.416277 0.202000
s 0
f 2/1/1 22/2/1 59/3/1
f 8/1/2 107/3/2 70/2/2
f 4/4/1 30/5/1 43/6/1
f 6/7/1 38/8/1 47/9/1
f 3/10/1 26/11/1 54/12/1
f 5/13/1 34/14/1 58/15/1
f 7/16/1 39/17/1 62/18/1
f 11/4/2 91/6/2 78/5/2
f 13/7/2 95/9/2 86/8/2
f 10/10/2 102/12/2 74/11/2
f 12/13/2 106/15/2 82/14/2
f 14/16/2 110/18/2 87/17/2
f 137/19/3 83/20/3 9/21/3 112/21/3
f 133/22/4 75/23/4 12/13/4 114/13/4
f 129/24/5 67/25/5 10/10/5 116/10/5
f 125/26/6 79/27/6 13/7/6 111/7/6
f 121/28/7 71/28/7 11/4/7 113/4/7
f 118/29/8 64/30/8 63/31/8 117/31/8
f 119/32/8 65/33/8 64/30/8 118/29/8
f 120/34/8 66/34/8 65/33/8 119/32/8
f 120/34/8 112/21/8 9/21/8 66/34/8
f 2/1/8 15/31/8 117/31/8 115/1/8
f 15/31/8 16/30/8 118/29/8 117/31/8
f 16/30/8 17/33/8 119/32/8 118/29/8
f 17/33/8 18/34/8 120/34/8 119/32/8
f 18/34/8 1/21/8 112/21/8 120/34/8
f 122/35/7 72/35/7 71/28/7 121/28/7
f 123/36/7 73/37/7 72/35/7 122/35/7
f 124/38/7 74/11/7 73/37/7 123/36/7
f 124/38/7 116/10/7 10/10/7 74/11/7
f 4/4/7 23/28/7 121/28/7 113/4/7
f 23/28/7 24/35/7 122/35/7 121/28/7
f 24/35/7 25/37/7 123/36/7 122/35/7
f 25/37/7 26/11/7 124/38/7 123/36/7
f 26/11/7 3/10/7 116/10/7 124/38/7
f 126/39/6 80/39/6 79/27/6 125/26/6
f 127/40/6 81/40/6 80/39/6 126/39/6
f 128/41/6 82/14/6 81/40/6 127/40/6
f 128/41/6 114/13/6 12/13/6 82/14/6
f 6/7/6 31/27/6 125/26/6 111/7/6
f 31/27/6 32/39/6 126/39/6 125/26/6
f 32/39/6 33/40/6 127/40/6 126/39/6
f 33/40/6 34/14/6 128/41/6 127/40/6
f 34/14/6 5/13/6 114/13/6 128/41/6
f 130/42/5 68/42/5 67/25/5 129/24/5
f 131/43/5 69/43/5 68/42/5 130/42/5
f 132/44/5 70/2/5 69/43/5 131/43/5
f 115/1/5 8/1/5 70/2/5 132/44/5
f 3/10/5 19/25/5 129/24/5 116/10/5
f 19/25/5 20/42/5 130/42/5 129/24/5
f 20/42/5 21/43/5 131/43/5 130/42/5
f 21/43/5 22/2/5 132/44/5 131/43/5
f 22/2/5 2/1/5 115/1/5 132/44/5
f 134/45/4 76/45/4 75/23/4 133/22/4
f 135/46/4 77/46/4 76/45/4 134/45/4
f 136/47/4 78/5/4 77/46/4 135/46/4
f 113/4/4 11/4/4 78/5/4 136/47/4
f 5/13/4 27/23/4 133/22/4 114/13/4
f 27/23/4 28/45/4 134/45/4 133/22/4
f 28/45/4 29/46/4 135/46/4 134/45/4
f 29/46/4 30/5/4 136/47/4 135/46/4
f 30/5/4 4/4/4 113/4/4 136/47/4
f 138/48/3 84/48/3 83/20/3 137/19/3
f 139/49/3 85/49/3 84/48/3 138/48/3
f 140/50/3 86/8/3 85/49/3 139/49/3
f 111/7/3 13/7/3 86/8/3 140/50/3
f 1/21/3 35/20/3 137/19/3 112/21/3
f 35/20/3 36/48/3 138/48/3 137/19/3
f 36/48/3 37/49/3 139/49/3 138/48/3
f 37/49/3 38/8/3 140/50/3 139/49/3
f 38/8/3 6/7/3 111/7/3 140/50/3
f 117/31/8 63/31/8 8/1/8 115/1/8
f 90/51/2 66/34/2 9/21/2
f 89/52/2 141/53/2 90/51/2
f 88/54/2 142/55/2 89/52/2
f 87/17/2 144/56/2 88/54/2
f 90/51/2 141/53/2 66/34/2
f 141/53/2 65/33/2 66/34/2
f 89/52/2 142/55/2 141/53/2
f 142/55/2 143/57/2 141/53/2
f 141/53/2 143/57/2 65/33/2
f 143/57/2 64/30/2 65/33/2
f 88/54/2 144/56/2 142/55/2
f 144/56/2 145/58/2 142/55/2
f 142/55/2 145/58/2 143/57/2
f 145/58/2 146/59/2 143/57/2
f 143/57/2 146/59/2 64/30/2
f 146/59/2 63/31/2 64/30/2
f 87/17/2 110/18/2 144/56/2
f 110/18/2 109/60/2 144/56/2
f 144/56/2 109/60/2 145/58/2
f 109/60/2 108/61/2 145/58/2
f 145/58/2 108/61/2 146/59/2
f 108/61/2 107/3/2 146/59/2
f 146/59/2 107/3/2 63/31/2
f 107/3/2 8/1/2 63/31/2
f 79/27/2 95/9/2 13/7/2
f 80/39/2 147/62/2 79/27/2
f 81/40/2 148/63/2 80/39/2
f 82/14/2 150/64/2 81/40/2
f 79/27/2 147/62/2 95/9/2
f 147/62/2 96/65/2 95/9/2
f 80/39/2 148/63/2 147/62/2
f 148/63/2 149/66/2 147/62/2
f 147/62/2 149/66/2 96/65/2
f 149/66/2 97/67/2 96/65/2
f 81/40/2 150/64/2 148/63/2
f 150/64/2 151/68/2 148/63/2
f 148/63/2 151/68/2 149/66/2
f 151/68/2 152/69/2 149/66/2
f 149/66/2 152/69/2 97/67/2
f 152/69/2 98/70/2 97/67/2
f 82/14/2 106/15/2 150/64/2
f 106/15/2 105/71/2 150/64/2
f 150/64/2 105/71/2 151/68/2
f 105/71/2 104/72/2 151/68/2
f 151/68/2 104/72/2 152/69/2
f 104/72/2 103/73/2 152/69/2
f 152/69/2 103/73/2 98/70/2
f 103/73/2 14/16/2 98/70/2
f 71/28/2 91/6/2 11/4/2
f 72/35/2 153/74/2 71/28/2
f 73/37/2 154/75/2 72/35/2
f 74/11/2 156/76/2 73/37/2
f 71/28/2 153/74/2 91/6/2
f 153/74/2 92/77/2 91/6/2
f 72/35/2 154/75/2 153/74/2
f 154/75/2 155/78/2 153/74/2
f 153/74/2 155/78/2 92/77/2
f 155/78/2 93/79/2 92/77/2
f 73/37/2 156/76/2 154/75/2
f 156/76/2 157/80/2 154/75/2
f 154/75/2 157/80/2 155/78/2
f 157/80/2 158/81/2 155/78/2
f 155/78/2 158/81/2 93/79/2
f 158/81/2 94/82/2 93/79/2
f 74/11/2 102/12/2 156/76/2
f 102/12/2 101/83/2 156/76/2
f 156/76/2 101/83/2 157/80/2
f 101/83/2 100/84/2 157/80/2
f 157/80/2 100/84/2 158/81/2
f 100/84/2 99/85/2 158/81/2
f 158/81/2 99/85/2 94/82/2
f 99/85/2 14/16/2 94/82/2
f 83/20/2 90/51/2 9/21/2
f 84/48/2 159/86/2 83/20/2
f 85/49/2 160/87/2 84/48/2
f 86/8/2 162/88/2 85/49/2
f 83/20/2 159/86/2 90/51/2
f 159/86/2 89/52/2 90/51/2
f 84/48/2 160/87/2 159/86/2
f 160/87/2 161/89/2 159/86/2
f 159/86/2 161/89/2 89/52/2
f 161/89/2 88/54/2 89/52/2
f 85/49/2 162/88/2 160/87/2
f 162/88/2 163/90/2 160/87/2
f 160/87/2 163/90/2 161/89/2
f 163/90/2 164/91/2 161/89/2
f 161/89/2 164/91/2 88/54/2
f 164/91/2 87/17/2 88/54/2
f 86/8/2 95/9/2 162/88/2
f 95/9/2 96/65/2 162/88/2
f 162/88/2 96/65/2 163/90/2
f 96/65/2 97/67/2 163/90/2
f 163/90/2 97/67/2 164/91/2
f 97/67/2 98/70/2 164/91/2
f 164/91/2 98/70/2 87/17/2
f 98/70/2 14/16/2 87/17/2
f 75/23/2 106/15/2 12/13/2
f 76/45/2 165/92/2 75/23/2
f 77/46/2 166/93/2 76/45/2
f 78/5/2 168/94/2 77/46/2
f 75/23/2 165/92/2 106/15/2
f 165/92/2 105/71/2 106/15/2
f 76/45/2 166/93/2 165/92/2
f 166/93/2 167/95/2 165/92/2
f 165/92/2 167/95/2 105/71/2
f 167/95/2 104/72/2 105/71/2
f 77/46/2 168/94/2 166/93/2
f 168/94/2 169/96/2 166/93/2
f 166/93/2 169/96/2 167/95/2
f 169/96/2 170/97/2 167/95/2
f 167/95/2 170/97/2 104/72/2
f 170/97/2 103/73/2 104/72/2
f 78/5/2 91/6/2 168/94/2
f 91/6/2 92/77/2 168/94/2
f 168/94/2 92/77/2 169/96/2
f 92/77/2 93/79/2 169/96/2
f 169/96/2 93/79/2 170/97/2
f 93/79/2 94/82/2 170/97/2
f 170/97/2 94/82/2 103/73/2
f 94/82/2 14/16/2 103/73/2
f 59/3/1 15/31/1 2/1/1
f 60/61/1 171/98/1 59/3/1
f 61/60/1 172/99/1 60/61/1
f 62/18/1 174/100/1 61/60/1
f 59/3/1 171/98/1 15/31/1
f 171/98/1 16/30/1 15/31/1
f 60/61/1 172/99/1 171/98/1
f 172/99/1 173/101/1 171/98/1
f 171/98/1 173/101/1 16/30/1
f 173/101/1 17/33/1 16/30/1
f 61/60/1 174/100/1 172/99/1
f 174/100/1 175/55/1 172/99/1
f 172/99/1 175/55/1 173/101/1
f 175/55/1 176/53/1 173/101/1
f 173/101/1 176/53/1 17/33/1
f 176/53/1 18/34/1 17/33/1
f 62/18/1 39/17/1 174/100/1
f 39/17/1 40/54/1 174/100/1
f 174/100/1 40/54/1 175/55/1
f 40/54/1 41/52/1 175/55/1
f 175/55/1 41/52/1 176/53/1
f 41/52/1 42/51/1 176/53/1
f 176/53/1 42/51/1 18/34/1
f 42/51/1 1/21/1 18/34/1
f 55/73/1 50/70/1 7/16/1
f 56/72/1 177/102/1 55/73/1
f 57/71/1 178/103/1 56/72/1
f 58/15/1 180/104/1 57/71/1
f 55/73/1 177/102/1 50/70/1
f 177/102/1 49/67/1 50/70/1
f 56/72/1 178/103/1 177/102/1
f 178/103/1 179/105/1 177/102/1
f 177/102/1 179/105/1 49/67/1
f 179/105/1 48/65/1 49/67/1
f 57/71/1 180/104/1 178/103/1
f 180/104/1 181/106/1 178/103/1
f 178/103/1 181/106/1 179/105/1
f 181/106/1 182/62/1 179/105/1
f 179/105/1 182/62/1 48/65/1
f 182/62/1 47/9/1 48/65/1
f 58/15/1 34/14/1 180/104/1
f 34/14/1 33/40/1 180/104/1
f 180/104/1 33/40/1 181/106/1
f 33/40/1 32/39/1 181/106/1
f 181/106/1 32/39/1 182/62/1
f 32/39/1 31/27/1 182/62/1
f 182/62/1 31/27/1 47/9/1
f 31/27/1 6/7/1 47/9/1
f 51/85/1 46/82/1 7/16/1
f 52/84/1 183/107/1 51/85/1
f 53/83/1 184/108/1 52/84/1
f 54/12/1 186/76/1 53/83/1
f 51/85/1 183/107/1 46/82/1
f 183/107/1 45/79/1 46/82/1
f 52/84/1 184/108/1 183/107/1
f 184/108/1 185/78/1 183/107/1
f 183/107/1 185/78/1 45/79/1
f 185/78/1 44/77/1 45/79/1
f 53/83/1 186/76/1 184/108/1
f 186/76/1 187/109/1 184/108/1
f 184/108/1 187/109/1 185/78/1
f 187/109/1 188/110/1 185/78/1
f 185/78/1 188/110/1 44/77/1
f 188/110/1 43/6/1 44/77/1
f 54/12/1 26/11/1 186/76/1
f 26/11/1 25/37/1 186/76/1
f 186/76/1 25/37/1 187/109/1
f 25/37/1 24/35/1 187/109/1
f 187/109/1 24/35/1 188/110/1
f 24/35/1 23/28/1 188/110/1
f 188/110/1 23/28/1 43/6/1
f 23/28/1 4/4/1 43/6/1
f 50/70/1 39/17/1 7/16/1
f 49/67/1 189/111/1 50/70/1
f 48/65/1 190/112/1 49/67/1
f 47/9/1 192/113/1 48/65/1
f 50/70/1 189/111/1 39/17/1
f 189/111/1 40/54/1 39/17/1
f 49/67/1 190/112/1 189/111/1
f 190/112/1 191/114/1 189/111/1
f 189/111/1 191/114/1 40/54/1
f 191/114/1 41/52/1 40/54/1
f 48/65/1 192/113/1 190/112/1
f 192/113/1 193/115/1 190/112/1
f 190/112/1 193/115/1 191/114/1
f 193/115/1 194/86/1 191/114/1
f 191/114/1 194/86/1 41/52/1
f 194/86/1 42/51/1 41/52/1
f 47/9/1 38/8/1 192/113/1
f 38/8/1 37/49/1 192/113/1
f 192/113/1 37/49/1 193/115/1
f 37/49/1 36/48/1 193/115/1
f 193/115/1 36/48/1 194/86/1
f 36/48/1 35/20/1 194/86/1
f 194/86/1 35/20/1 42/51/1
f 35/20/1 1/21/1 42/51/1
f 46/82/1 55/73/1 7/16/1
f 45/79/1 195/97/1 46/82/1
f 44/77/1 196/116/1 45/79/1
f 43/6/1 198/94/1 44/77/1
f 46/82/1 195/97/1 55/73/1
f 195/97/1 56/72/1 55/73/1
f 45/79/1 196/116/1 195/97/1
f 196/116/1 197/117/1 195/97/1
f 195/97/1 197/117/1 56/72/1
f 197/117/1 57/71/1 56/72/1
f 44/77/1 198/94/1 196/116/1
f 198/94/1 199/93/1 196/116/1
f 196/116/1 199/93/1 197/117/1
f 199/93/1 200/118/1 197/117/1
f 197/117/1 200/118/1 57/71/1
f 200/118/1 58/15/1 57/71/1
f 43/6/1 30/5/1 198/94/1
f 30/5/1 29/46/1 198/94/1
f 198/94/1 29/46/1 199/93/1
f 29/46/1 28/45/1 199/93/1
f 199/93/1 28/45/1 200/118/1
f 28/45/1 27/23/1 200/118/1
f 200/118/1 27/23/1 58/15/1
f 27/23/1 5/13/1 58/15/1
f 67/25/2 102/12/2 10/10/2
f 68/42/2 201/119/2 67/25/2
f 69/43/2 202/120/2 68/42/2
f 70/2/2 204/121/2 69/43/2
f 67/25/2 201/119/2 102/12/2
f 201/119/2 101/83/2 102/12/2
f 68/42/2 202/120/2 201/119/2
f 202/120/2 203/122/2 201/119/2
f 201/119/2 203/122/2 101/83/2
f 203/122/2 100/84/2 101/83/2
f 69/43/2 204/121/2 202/120/2
f 204/121/2 205/123/2 202/120/2
f 202/120/2 205/123/2 203/122/2
f 205/123/2 206/124/2 203/122/2
f 203/122/2 206/124/2 100/84/2
f 206/124/2 99/85/2 100/84/2
f 70/2/2 107/3/2 204/121/2
f 107/3/2 108/61/2 204/121/2
f 204/121/2 108/61/2 205/123/2
f 108/61/2 109/60/2 205/123/2
f 205/123/2 109/60/2 206/124/2
f 109/60/2 110/18/2 206/124/2
f 206/124/2 110/18/2 99/85/2
f 110/18/2 14/16/2 99/85/2
f 62/18/1 51/85/1 7/16/1
f 61/60/1 207/125/1 62/18/1
f 60/61/1 208/123/1 61/60/1
f 59/3/1 210/121/1 60/61/1
f 62/18/1 207/125/1 51/85/1
f 207/125/1 52/84/1 51/85/1
f 61/60/1 208/123/1 207/125/1
f 208/123/1 209/126/1 207/125/1
f 207/125/1 209/126/1 52/84/1
f 209/126/1 53/83/1 52/84/1
f 60/61/1 210/121/1 208/123/1
f 210/121/1 211/127/1 208/123/1
f 208/123/1 211/127/1 209/126/1
f 211/127/1 212/128/1 209/126/1
f 209/126/1 212/128/1 53/83/1
f 212/128/1 54/12/1 53/83/1
f 59/3/1 22/2/1 210/121/1
f 22/2/1 21/43/1 210/121/1
f 210/121/1 21/43/1 211/127/1
f 21/43/1 20/42/1 211/127/1
f 211/127/1 20/42/1 212/128/1
f 20/42/1 19/25/1 212/128/1
f 212/128/1 19/25/1 54/12/1
f 19/25/1 3/10/1 54/12/1
